<?xml version="1.0" encoding="utf-8" standalone="no"?>
<!DOCTYPE svg PUBLIC "-//W3C//DTD SVG 1.1//EN"
  "http://www.w3.org/Graphics/SVG/1.1/DTD/svg11.dtd">
<svg xmlns:xlink="http://www.w3.org/1999/xlink" width="988.539219pt" height="521.797479pt" viewBox="0 0 988.539219 521.797479" xmlns="http://www.w3.org/2000/svg" version="1.1">
 <metadata>
  <rdf:RDF xmlns:dc="http://purl.org/dc/elements/1.1/" xmlns:cc="http://creativecommons.org/ns#" xmlns:rdf="http://www.w3.org/1999/02/22-rdf-syntax-ns#">
   <cc:Work>
    <dc:type rdf:resource="http://purl.org/dc/dcmitype/StillImage"/>
    <dc:date>2026-09-25T02:23:44.108735</dc:date>
    <dc:format>image/svg+xml</dc:format>
    <dc:creator>
     <cc:Agent>
      <dc:title>Matplotlib v3.10.8, https://matplotlib.org/</dc:title>
     </cc:Agent>
    </dc:creator>
   </cc:Work>
  </rdf:RDF>
 </metadata>
 <defs>
  <style type="text/css">*{stroke-linejoin: round; stroke-linecap: butt}</style>
 </defs>
 <g id="figure_1">
  <g id="patch_1">
   <path d="M 0 521.797479 
L 988.539219 521.797479 
L 988.539219 0 
L 0 0 
z
" style="fill: #ffffff"/>
  </g>
  <g id="axes_1">
   <g id="patch_2">
    <path d="M 75.227969 200.690684 
L 968.027969 200.690684 
L 968.027969 44.570729 
L 75.227969 44.570729 
z
" style="fill: #ffffff"/>
   </g>
   <g id="patch_3">
    <path d="M 223.135169 200.690684 
L 323.723969 200.690684 
L 323.723969 44.570729 
L 223.135169 44.570729 
z
" clip-path="url(#pb18b798684)" style="fill: #ba263c; opacity: 0.1"/>
   </g>
   <g id="patch_4">
    <path d="M 325.658369 200.690684 
L 808.960769 200.690684 
L 808.960769 44.570729 
L 325.658369 44.570729 
z
" clip-path="url(#pb18b798684)" style="fill: #728572; opacity: 0.085"/>
   </g>
   <g id="patch_5">
    <path d="M 964.159169 200.690684 
L 968.027969 200.690684 
L 968.027969 44.570729 
L 964.159169 44.570729 
z
" clip-path="url(#pb18b798684)" style="fill: #ba263c; opacity: 0.1"/>
   </g>
   <g id="matplotlib.axis_1">
    <g id="xtick_1">
     <g id="line2d_1">
      <defs>
       <path id="m81fe6092bc" d="M 0 0 
L 0 3.5 
" style="stroke: #000000; stroke-width: 0.8"/>
      </defs>
      <g>
       <use xlink:href="#m81fe6092bc" x="75.227969" y="200.690684" style="stroke: #000000; stroke-width: 0.8"/>
      </g>
     </g>
    </g>
    <g id="xtick_2">
     <g id="line2d_2">
      <g>
       <use xlink:href="#m81fe6092bc" x="224.027969" y="200.690684" style="stroke: #000000; stroke-width: 0.8"/>
      </g>
     </g>
    </g>
    <g id="xtick_3">
     <g id="line2d_3">
      <g>
       <use xlink:href="#m81fe6092bc" x="372.827969" y="200.690684" style="stroke: #000000; stroke-width: 0.8"/>
      </g>
     </g>
    </g>
    <g id="xtick_4">
     <g id="line2d_4">
      <g>
       <use xlink:href="#m81fe6092bc" x="521.627969" y="200.690684" style="stroke: #000000; stroke-width: 0.8"/>
      </g>
     </g>
    </g>
    <g id="xtick_5">
     <g id="line2d_5">
      <g>
       <use xlink:href="#m81fe6092bc" x="670.427969" y="200.690684" style="stroke: #000000; stroke-width: 0.8"/>
      </g>
     </g>
    </g>
    <g id="xtick_6">
     <g id="line2d_6">
      <g>
       <use xlink:href="#m81fe6092bc" x="819.227969" y="200.690684" style="stroke: #000000; stroke-width: 0.8"/>
      </g>
     </g>
    </g>
    <g id="xtick_7">
     <g id="line2d_7">
      <g>
       <use xlink:href="#m81fe6092bc" x="968.027969" y="200.690684" style="stroke: #000000; stroke-width: 0.8"/>
      </g>
     </g>
    </g>
   </g>
   <g id="matplotlib.axis_2">
    <g id="ytick_1">
     <g id="line2d_8">
      <defs>
       <path id="m7bd4ae870b" d="M 0 0 
L -3.5 0 
" style="stroke: #000000; stroke-width: 0.8"/>
      </defs>
      <g>
       <use xlink:href="#m7bd4ae870b" x="75.227969" y="200.690684" style="stroke: #000000; stroke-width: 0.8"/>
      </g>
     </g>
     <g id="text_1">
      <text style="font-size: 13px; font-family: 'DejaVu Sans'; text-anchor: end" x="68.227969" y="205.629668" transform="rotate(-0 68.227969 205.629668)">0.0</text>
     </g>
    </g>
    <g id="ytick_2">
     <g id="line2d_9">
      <g>
       <use xlink:href="#m7bd4ae870b" x="75.227969" y="170.667615" style="stroke: #000000; stroke-width: 0.8"/>
      </g>
     </g>
     <g id="text_2">
      <text style="font-size: 13px; font-family: 'DejaVu Sans'; text-anchor: end" x="68.227969" y="175.6066" transform="rotate(-0 68.227969 175.6066)">0.2</text>
     </g>
    </g>
    <g id="ytick_3">
     <g id="line2d_10">
      <g>
       <use xlink:href="#m7bd4ae870b" x="75.227969" y="140.644547" style="stroke: #000000; stroke-width: 0.8"/>
      </g>
     </g>
     <g id="text_3">
      <text style="font-size: 13px; font-family: 'DejaVu Sans'; text-anchor: end" x="68.227969" y="145.583531" transform="rotate(-0 68.227969 145.583531)">0.4</text>
     </g>
    </g>
    <g id="ytick_4">
     <g id="line2d_11">
      <g>
       <use xlink:href="#m7bd4ae870b" x="75.227969" y="110.621479" style="stroke: #000000; stroke-width: 0.8"/>
      </g>
     </g>
     <g id="text_4">
      <text style="font-size: 13px; font-family: 'DejaVu Sans'; text-anchor: end" x="68.227969" y="115.560463" transform="rotate(-0 68.227969 115.560463)">0.6</text>
     </g>
    </g>
    <g id="ytick_5">
     <g id="line2d_12">
      <g>
       <use xlink:href="#m7bd4ae870b" x="75.227969" y="80.59841" style="stroke: #000000; stroke-width: 0.8"/>
      </g>
     </g>
     <g id="text_5">
      <text style="font-size: 13px; font-family: 'DejaVu Sans'; text-anchor: end" x="68.227969" y="85.537395" transform="rotate(-0 68.227969 85.537395)">0.8</text>
     </g>
    </g>
    <g id="ytick_6">
     <g id="line2d_13">
      <g>
       <use xlink:href="#m7bd4ae870b" x="75.227969" y="50.575342" style="stroke: #000000; stroke-width: 0.8"/>
      </g>
     </g>
     <g id="text_6">
      <text style="font-size: 13px; font-family: 'DejaVu Sans'; text-anchor: end" x="68.227969" y="55.514327" transform="rotate(-0 68.227969 55.514327)">1.0</text>
     </g>
    </g>
    <g id="text_7">
     <text style="font-size: 15px; font-family: 'DejaVu Sans'; text-anchor: middle" x="40.434375" y="122.630706" transform="rotate(-90 40.434375 122.630706)">Resource Z</text>
    </g>
   </g>
   <g id="line2d_14">
    <path d="M 75.227969 50.575342 
L 76.418369 50.635027 
L 77.013569 51.029006 
L 77.608769 51.576734 
L 78.203969 51.818372 
L 78.799169 51.899713 
L 79.691969 52.065365 
L 80.287169 52.164008 
L 80.882369 52.647046 
L 81.477569 53.172256 
L 82.072769 53.277151 
L 82.667969 53.391411 
L 84.751169 54.336527 
L 85.346369 54.837848 
L 85.941569 54.996312 
L 88.024769 55.010825 
L 88.619969 55.428052 
L 89.512769 56.396559 
L 90.107969 56.496388 
L 91.595969 56.400207 
L 92.191169 56.815882 
L 93.381569 57.83961 
L 93.976769 58.02788 
L 95.464769 57.974472 
L 96.059969 58.543652 
L 96.655169 59.172438 
L 97.250369 59.331774 
L 98.440769 59.376689 
L 99.035969 59.351801 
L 99.631169 59.644258 
L 100.523969 60.353293 
L 101.119169 60.450532 
L 102.904769 60.23103 
L 103.202369 60.418467 
L 104.392769 62.064464 
L 104.987969 62.113899 
L 107.071169 61.810737 
L 107.666369 62.047709 
L 108.261569 62.846213 
L 108.856769 63.468993 
L 109.451969 63.458719 
L 111.535169 63.13042 
L 112.130369 63.361036 
L 113.023169 64.087925 
L 113.618369 64.214329 
L 114.213569 64.173817 
L 115.403969 64.709413 
L 115.999169 64.713523 
L 117.189569 65.408849 
L 117.784769 65.354132 
L 119.570369 65.02096 
L 119.867969 65.175345 
L 120.760769 66.342859 
L 121.058369 66.496828 
L 122.843969 66.268832 
L 123.736769 66.430123 
L 124.331969 66.32764 
L 124.629569 66.42442 
L 125.819969 67.612776 
L 126.712769 67.461926 
L 128.498369 67.072443 
L 128.795969 67.154721 
L 129.391169 67.888275 
L 129.986369 68.565534 
L 130.581569 68.593551 
L 132.664769 68.171707 
L 133.557569 68.88523 
L 134.152769 69.17666 
L 134.747969 69.227572 
L 135.640769 69.201585 
L 136.533569 69.414093 
L 137.426369 70.035428 
L 137.723969 70.106041 
L 139.211969 69.89194 
L 140.699969 70.654972 
L 141.295169 70.768488 
L 142.187969 71.226679 
L 142.783169 71.175552 
L 143.378369 71.075729 
L 143.973569 71.355325 
L 144.568769 71.720785 
L 145.163969 71.91139 
L 146.056769 72.444592 
L 146.651969 72.466321 
L 147.544769 72.214255 
L 147.842369 72.252912 
L 149.330369 73.356666 
L 149.925569 73.364035 
L 151.115969 73.819601 
L 152.306369 73.666501 
L 153.496769 73.459368 
L 153.794369 73.676947 
L 154.687169 74.791688 
L 154.984769 74.899244 
L 155.877569 74.656405 
L 156.770369 74.390667 
L 157.067969 74.495259 
L 157.663169 75.110008 
L 157.960769 75.441895 
L 158.555969 75.697745 
L 160.043969 75.914306 
L 161.234369 75.624443 
L 161.531969 75.748888 
L 162.127169 76.446659 
L 162.722369 77.022877 
L 163.317569 76.977587 
L 164.210369 76.758846 
L 164.805569 77.03463 
L 166.888769 78.109691 
L 167.483969 77.985324 
L 167.781569 77.922 
L 168.376769 78.125727 
L 168.971969 78.434813 
L 169.567169 78.552652 
L 170.459969 78.884974 
L 171.055169 78.757673 
L 172.245569 78.394661 
L 172.840769 78.698828 
L 173.435969 79.003371 
L 174.031169 78.933995 
L 175.519169 78.426206 
L 176.114369 78.612427 
L 177.304769 79.679533 
L 177.899969 79.582752 
L 179.387969 79.020667 
L 179.685569 79.012742 
L 179.983169 79.190858 
L 180.875969 80.277983 
L 181.471169 80.481809 
L 182.363969 80.340707 
L 183.554369 79.890968 
L 183.851969 79.984079 
L 184.447169 80.685447 
L 185.042369 81.279546 
L 185.339969 81.32279 
L 186.827969 80.738519 
L 187.423169 80.514636 
L 187.720769 80.528885 
L 188.018369 80.708277 
L 189.208769 81.875072 
L 190.101569 81.837042 
L 190.994369 81.611774 
L 191.887169 81.320138 
L 192.482369 81.8217 
L 193.077569 82.419987 
L 193.672769 82.426509 
L 194.863169 81.953259 
L 195.755969 81.611513 
L 196.351169 81.684977 
L 197.243969 82.376376 
L 197.839169 82.859607 
L 198.136769 82.97676 
L 198.731969 82.882436 
L 200.219969 82.2446 
L 200.517569 82.286257 
L 201.112769 82.934475 
L 201.707969 83.615961 
L 202.005569 83.635603 
L 203.791169 82.959988 
L 204.088769 82.995848 
L 204.386369 83.179065 
L 205.279169 84.339062 
L 205.576769 84.557488 
L 205.874369 84.543882 
L 208.255169 83.610306 
L 209.147969 84.239338 
L 209.743169 84.597972 
L 210.635969 84.822639 
L 211.231169 84.694603 
L 212.421569 84.196214 
L 213.016769 84.39674 
L 213.611969 84.762443 
L 214.207169 84.723574 
L 215.397569 84.26991 
L 215.992769 84.523268 
L 218.075969 85.778676 
L 218.968769 85.919288 
L 219.266369 86.066611 
L 221.051969 87.783846 
L 222.242369 88.64349 
L 224.325569 90.623608 
L 225.515969 92.087204 
L 230.872769 96.684285 
L 233.551169 98.784979 
L 237.419969 102.06613 
L 239.205569 103.465215 
L 240.395969 104.704007 
L 242.181569 106.945888 
L 246.050369 109.691875 
L 250.811969 115.333401 
L 255.573569 120.625177 
L 260.335169 125.588886 
L 265.096769 130.244867 
L 270.155969 134.875987 
L 275.215169 139.202655 
L 280.274369 143.244888 
L 285.631169 147.235635 
L 290.987969 150.949145 
L 296.642369 154.589454 
L 302.296769 157.96335 
L 308.248769 161.248415 
L 314.200769 164.28091 
L 320.450369 167.214428 
L 326.997569 170.034465 
L 333.544769 172.616943 
L 336.223169 173.609632 
L 336.520769 173.531157 
L 340.984769 166.371338 
L 345.448769 159.627839 
L 349.912769 153.277054 
L 354.376769 147.296114 
L 359.138369 141.299852 
L 363.899969 135.675331 
L 368.661569 130.399506 
L 373.423169 125.450759 
L 378.184769 120.808813 
L 383.243969 116.191653 
L 388.303169 111.878026 
L 393.362369 107.847978 
L 398.719169 103.869261 
L 404.075969 100.166944 
L 409.730369 96.537608 
L 415.384769 93.173882 
L 421.336769 89.89872 
L 427.288769 86.875366 
L 433.538369 83.95069 
L 440.085569 81.139153 
L 446.930369 78.452726 
L 453.775169 76.002424 
L 460.917569 73.674909 
L 468.655169 71.393235 
L 476.690369 69.262037 
L 485.023169 67.282055 
L 493.951169 65.39285 
L 503.474369 63.61256 
L 513.592769 61.954766 
L 524.306369 60.428632 
L 535.912769 59.005401 
L 548.411969 57.701713 
L 562.101569 56.504014 
L 576.981569 55.429319 
L 593.647169 54.45519 
L 612.098369 53.603013 
L 633.227969 52.854465 
L 657.631169 52.217133 
L 686.795969 51.684702 
L 722.805569 51.259052 
L 769.826369 50.938751 
L 809.407169 50.794429 
L 810.002369 51.049645 
L 810.597569 51.422753 
L 811.192769 51.564615 
L 816.549569 51.635049 
L 818.037569 52.457765 
L 819.227969 52.604897 
L 820.120769 53.034224 
L 820.715969 53.273995 
L 821.608769 53.855905 
L 822.203969 53.940116 
L 823.096769 53.987529 
L 824.287169 54.572228 
L 824.882369 54.819761 
L 825.775169 55.499026 
L 826.370369 55.613896 
L 829.643969 55.406286 
L 829.941569 55.556889 
L 831.131969 56.918093 
L 831.727169 57.005509 
L 833.512769 56.946145 
L 835.000769 57.043183 
L 835.893569 57.642241 
L 836.786369 57.891985 
L 837.381569 58.152591 
L 838.571969 58.231634 
L 840.059969 59.108684 
L 840.952769 59.425271 
L 842.738369 59.400016 
L 844.523969 60.447979 
L 845.119169 60.47629 
L 846.011969 60.436689 
L 846.607169 60.820501 
L 847.202369 61.17874 
L 848.095169 61.533058 
L 848.690369 61.699692 
L 850.475969 61.484487 
L 850.773569 61.645028 
L 851.666369 62.556412 
L 852.261569 62.641729 
L 852.856769 62.572273 
L 854.642369 62.901251 
L 855.237569 63.457613 
L 855.832769 64.001432 
L 856.427969 64.099279 
L 858.213569 64.02833 
L 858.511169 64.154142 
L 859.999169 65.469722 
L 860.594369 65.450608 
L 862.677569 65.147601 
L 862.975169 65.361866 
L 863.867969 66.548753 
L 864.165569 66.744879 
L 864.760769 66.78332 
L 866.843969 66.352653 
L 867.141569 66.496272 
L 868.331969 68.027192 
L 868.927169 67.997484 
L 871.010369 67.519949 
L 871.307969 67.629575 
L 871.903169 68.504146 
L 872.498369 69.265541 
L 872.795969 69.314708 
L 875.176769 68.73585 
L 875.474369 68.867218 
L 876.664769 70.383487 
L 877.259969 70.334636 
L 879.045569 69.932463 
L 879.640769 70.246508 
L 880.235969 70.618344 
L 880.831169 70.928278 
L 881.723969 71.378818 
L 882.616769 71.240403 
L 883.211969 71.083869 
L 883.509569 71.117057 
L 884.402369 71.653697 
L 885.295169 71.849191 
L 885.890369 72.340046 
L 886.187969 72.449532 
L 887.378369 72.255351 
L 887.973569 72.590612 
L 888.568769 72.867878 
L 890.354369 73.016683 
L 891.247169 72.804861 
L 891.842369 73.177003 
L 892.437569 73.537049 
L 893.032769 73.454442 
L 893.627969 73.407839 
L 894.223169 73.616457 
L 894.818369 73.840616 
L 895.711169 73.914417 
L 896.306369 74.388659 
L 896.901569 74.800139 
L 897.496769 74.784503 
L 898.984769 74.309921 
L 899.282369 74.41192 
L 899.877569 75.238358 
L 900.472769 75.973524 
L 901.067969 75.910228 
L 902.853569 75.346282 
L 903.151169 75.534323 
L 904.341569 77.105709 
L 904.639169 77.126378 
L 906.722369 76.424025 
L 907.019969 76.529598 
L 908.507969 77.645908 
L 909.103169 77.731559 
L 910.888769 77.200259 
L 911.483969 77.938945 
L 912.079169 78.821721 
L 912.376769 78.886077 
L 913.864769 78.354764 
L 914.757569 78.098262 
L 915.055169 78.159415 
L 916.840769 79.33657 
L 917.435969 79.456661 
L 918.031169 79.368479 
L 918.923969 79.097578 
L 919.221569 79.185332 
L 920.411969 80.1762 
L 921.007169 80.035621 
L 921.899969 79.736323 
L 922.495169 80.002484 
L 923.387969 80.450666 
L 924.875969 80.696761 
L 925.768769 80.601202 
L 926.661569 81.110033 
L 927.256769 81.058163 
L 927.851969 80.917067 
L 928.149569 80.976446 
L 928.744769 81.470408 
L 929.339969 81.923674 
L 930.232769 82.222585 
L 930.827969 82.286905 
L 931.720769 81.986269 
L 932.613569 81.681582 
L 932.911169 81.879546 
L 934.101569 83.307648 
L 934.696769 83.157425 
L 936.482369 82.401012 
L 936.779969 82.399178 
L 937.375169 82.752486 
L 938.565569 83.651268 
L 939.160769 83.606314 
L 940.648769 83.002031 
L 940.946369 83.061878 
L 941.541569 83.686303 
L 942.136769 84.355362 
L 942.434369 84.49089 
L 943.029569 84.386744 
L 944.517569 83.742832 
L 944.815169 83.751304 
L 945.112769 83.938241 
L 946.005569 84.992269 
L 946.303169 85.11886 
L 946.898369 84.930818 
L 948.683969 84.17102 
L 948.981569 84.224083 
L 949.576769 84.971552 
L 950.171969 85.725999 
L 950.469569 85.81069 
L 951.957569 85.139756 
L 952.850369 84.743492 
L 953.147969 84.804391 
L 953.743169 85.496251 
L 954.338369 86.207855 
L 954.635969 86.293161 
L 956.421569 85.671989 
L 957.016769 85.46765 
L 957.314369 85.500056 
L 957.909569 86.037733 
L 958.504769 86.744747 
L 959.099969 87.010993 
L 959.992769 87.202756 
L 960.885569 87.771426 
L 962.075969 88.735666 
L 963.266369 90.084804 
L 965.349569 91.695058 
L 967.730369 93.787596 
L 967.730369 93.787596 
" clip-path="url(#pb18b798684)" style="fill: none; stroke: #8952ab; stroke-width: 1.5; stroke-linecap: square"/>
   </g>
   <g id="line2d_15">
    <path d="M 75.227969 50.575342 
L 76.715969 50.575398 
L 77.311169 51.651299 
L 77.906369 52.813751 
L 78.501569 52.855601 
L 80.287169 52.801525 
L 80.584769 53.026069 
L 81.477569 54.786241 
L 81.775169 54.981183 
L 84.453569 54.864713 
L 85.643969 57.019844 
L 88.024769 56.842737 
L 88.917569 58.326685 
L 89.215169 58.433822 
L 91.595969 58.187145 
L 92.786369 60.322527 
L 95.762369 60.080673 
L 96.655169 61.699424 
L 96.952769 61.835229 
L 99.333569 61.480613 
L 99.631169 61.675406 
L 100.523969 63.333637 
L 100.821569 63.637012 
L 103.499969 63.221644 
L 104.690369 65.292678 
L 105.583169 65.169893 
L 107.666369 64.848318 
L 108.856769 66.88866 
L 110.344769 66.591006 
L 112.130369 66.305072 
L 113.320769 68.335346 
L 114.808769 68.009331 
L 115.999169 67.737262 
L 116.594369 68.62506 
L 116.891969 69.108357 
L 117.189569 69.358764 
L 119.570369 68.827039 
L 120.760769 70.794204 
L 122.843969 70.351813 
L 123.141569 70.401361 
L 124.629569 70.022253 
L 124.927169 70.288367 
L 125.819969 71.832961 
L 126.117569 71.96086 
L 128.498369 71.288151 
L 128.795969 71.39759 
L 129.688769 72.878092 
L 129.986369 73.11432 
L 132.367169 72.410122 
L 133.557569 74.429484 
L 133.855169 74.468726 
L 135.938369 73.808985 
L 136.235969 73.907089 
L 137.426369 75.841836 
L 140.699969 74.758094 
L 140.997569 75.084796 
L 141.890369 76.563149 
L 142.187969 76.650717 
L 143.675969 76.14383 
L 144.271169 76.172432 
L 145.163969 75.891872 
L 146.354369 77.456173 
L 147.842369 77.085558 
L 148.139969 77.237088 
L 148.437569 77.253085 
L 149.627969 76.833593 
L 149.925569 76.996851 
L 150.818369 78.449557 
L 151.115969 78.600393 
L 153.199169 77.826568 
L 153.496769 77.838936 
L 154.687169 79.788456 
L 155.282369 79.632037 
L 157.365569 78.928256 
L 158.258369 78.602217 
L 158.853569 79.419864 
L 159.448769 80.364689 
L 159.746369 80.420507 
L 161.531969 79.793698 
L 162.722369 79.706839 
L 163.615169 79.359346 
L 163.912769 79.363734 
L 165.103169 81.234843 
L 165.995969 80.908325 
L 167.483969 80.307686 
L 168.079169 81.123643 
L 168.674369 82.076373 
L 168.971969 82.256899 
L 171.947969 81.038551 
L 173.138369 82.919947 
L 173.435969 82.959188 
L 176.114369 81.913584 
L 177.304769 83.645114 
L 177.602369 83.64833 
L 179.387969 82.86402 
L 179.685569 82.999891 
L 180.875969 84.756251 
L 183.256769 83.685487 
L 183.554369 83.818517 
L 184.744769 85.596596 
L 187.125569 84.510376 
L 187.423169 84.647414 
L 188.613569 86.46035 
L 191.887169 85.031412 
L 193.077569 86.864843 
L 193.375169 86.84522 
L 196.648769 85.28393 
L 196.946369 85.257187 
L 198.136769 87.086157 
L 198.434369 87.076536 
L 200.815169 85.993674 
L 202.005569 87.812243 
L 202.303169 87.870643 
L 203.791169 87.133039 
L 204.088769 87.294389 
L 205.279169 88.849392 
L 205.576769 89.077197 
L 205.874369 89.053332 
L 207.659969 88.140845 
L 207.957569 88.106812 
L 209.445569 90.211644 
L 210.040769 89.965117 
L 212.123969 88.87749 
L 212.421569 89.107856 
L 213.611969 90.868524 
L 213.909569 90.976284 
L 216.587969 89.551138 
L 217.183169 90.284184 
L 218.075969 91.412813 
L 218.373569 91.344117 
L 218.671169 91.555858 
L 225.813569 101.533352 
L 230.277569 107.307881 
L 235.039169 113.097204 
L 239.800769 118.527615 
L 244.562369 123.621363 
L 249.323969 128.399322 
L 254.383169 133.151768 
L 259.442369 137.591787 
L 264.501569 141.739919 
L 269.858369 145.835215 
L 275.215169 149.646012 
L 280.571969 153.192074 
L 286.226369 156.668236 
L 291.880769 159.889997 
L 297.832769 163.026933 
L 304.082369 166.061483 
L 310.331969 168.851541 
L 316.879169 171.533668 
L 323.723969 174.096444 
L 330.866369 176.530797 
L 336.520769 178.25542 
L 342.175169 168.918829 
L 346.639169 162.026974 
L 351.103169 155.536473 
L 355.567169 149.423953 
L 360.031169 143.667402 
L 364.792769 137.896104 
L 369.554369 132.482601 
L 374.315969 127.404711 
L 379.077569 122.641629 
L 384.136769 117.903979 
L 389.195969 113.477784 
L 394.255169 109.342567 
L 399.611969 105.260021 
L 404.968769 101.461089 
L 410.325569 97.926068 
L 415.979969 94.460729 
L 421.634369 91.248999 
L 427.586369 88.121829 
L 433.835969 85.096727 
L 440.085569 82.315356 
L 446.632769 79.641579 
L 453.477569 77.086782 
L 460.619969 74.660008 
L 468.059969 72.368028 
L 475.797569 70.215441 
L 484.130369 68.13444 
L 492.760769 66.211266 
L 501.986369 64.387785 
L 511.807169 62.679736 
L 522.223169 61.098382 
L 533.234369 59.650726 
L 545.138369 58.308861 
L 558.232769 57.060799 
L 572.517569 55.927824 
L 588.290369 54.905302 
L 605.848769 53.995053 
L 625.787969 53.191098 
L 648.703169 52.497695 
L 675.487169 51.916518 
L 707.925569 51.442566 
L 748.994369 51.074685 
L 804.943169 50.810742 
L 809.109569 50.797922 
L 809.407169 50.932947 
L 810.299969 52.582408 
L 811.192769 52.603427 
L 815.954369 52.477695 
L 816.251969 52.798719 
L 817.144769 54.505321 
L 818.037569 54.498909 
L 820.120769 54.391591 
L 821.311169 56.426146 
L 824.584769 56.186575 
L 825.179969 57.198563 
L 825.775169 58.137169 
L 829.643969 57.83263 
L 830.536769 59.535785 
L 830.834369 59.816268 
L 834.405569 59.383176 
L 834.703169 59.684526 
L 835.595969 61.33591 
L 836.191169 61.352419 
L 837.976769 61.096846 
L 838.274369 61.250463 
L 839.167169 62.913763 
L 839.464769 63.19535 
L 842.143169 62.749105 
L 842.440769 63.020958 
L 843.333569 64.662537 
L 843.631169 64.859073 
L 845.714369 64.492816 
L 846.904769 66.533098 
L 850.773569 65.750036 
L 851.666369 67.101225 
L 851.963969 67.148846 
L 854.344769 66.626885 
L 854.642369 66.903047 
L 855.535169 68.498844 
L 855.832769 68.669122 
L 858.511169 68.115508 
L 859.701569 70.055854 
L 862.975169 69.217287 
L 864.165569 71.223751 
L 865.058369 71.030437 
L 866.843969 70.557303 
L 868.034369 72.554602 
L 868.629569 72.443297 
L 871.307969 71.72498 
L 871.605569 71.887972 
L 872.498369 73.368789 
L 872.795969 73.478445 
L 874.879169 72.846047 
L 875.176769 72.87081 
L 876.367169 74.856173 
L 878.747969 74.103899 
L 879.045569 74.338061 
L 879.938369 75.843825 
L 880.235969 76.0161 
L 883.211969 75.039334 
L 884.402369 77.025424 
L 884.699969 77.046286 
L 886.783169 76.315373 
L 887.080769 76.370129 
L 888.271169 78.305438 
L 890.354369 77.559017 
L 890.949569 77.344007 
L 891.247169 77.59211 
L 892.139969 79.058971 
L 892.437569 79.27084 
L 894.223169 78.604853 
L 895.115969 79.448087 
L 896.008769 79.352922 
L 897.199169 80.991102 
L 897.794369 80.853751 
L 899.282369 80.302199 
L 900.175169 81.651002 
L 900.472769 82.080821 
L 900.770369 82.192853 
L 902.853569 81.378836 
L 904.043969 83.195621 
L 904.639169 83.026091 
L 906.424769 82.256537 
L 906.722369 82.395768 
L 907.912769 84.177618 
L 910.591169 82.989439 
L 910.888769 83.269168 
L 911.781569 84.669819 
L 912.079169 84.897426 
L 915.055169 83.61598 
L 916.245569 85.460835 
L 916.543169 85.476872 
L 918.923969 84.377693 
L 919.221569 84.378731 
L 920.411969 86.199876 
L 921.007169 86.007444 
L 922.197569 85.458533 
L 922.792769 85.518711 
L 923.090369 85.402158 
L 923.983169 85.333869 
L 925.173569 84.782152 
L 925.471169 85.037061 
L 926.363969 86.416624 
L 926.661569 86.678744 
L 929.339969 85.45628 
L 930.530369 87.278373 
L 931.125569 87.096237 
L 932.613569 86.385562 
L 932.911169 86.531936 
L 933.803969 87.719733 
L 934.399169 87.531005 
L 936.184769 86.654619 
L 936.482369 86.784341 
L 937.672769 88.563729 
L 940.648769 87.204197 
L 941.839169 88.975767 
L 942.731969 88.579851 
L 944.517569 87.708768 
L 945.410369 88.986831 
L 945.707969 89.432759 
L 946.005569 89.603902 
L 948.683969 88.223866 
L 949.576769 89.490912 
L 949.874369 89.934827 
L 950.171969 90.114862 
L 952.552769 88.869615 
L 952.850369 88.847355 
L 954.040769 90.622148 
L 954.338369 90.629026 
L 957.016769 89.245017 
L 958.802369 91.720239 
L 959.397569 91.400873 
L 959.695169 91.511491 
L 967.135169 101.888777 
L 967.730369 102.676047 
L 967.730369 102.676047 
" clip-path="url(#pb18b798684)" style="fill: none; stroke: #cf3e87; stroke-width: 1.5; stroke-linecap: square"/>
   </g>
   <g id="line2d_16">
    <path d="M 75.227969 50.575342 
L 76.120769 50.581102 
L 77.311169 52.732473 
L 79.691969 52.664704 
L 79.989569 52.891596 
L 80.882369 54.643982 
L 81.179969 54.802951 
L 84.155969 54.703413 
L 85.346369 56.775536 
L 88.619969 56.550841 
L 88.917569 56.647635 
L 89.512769 57.334969 
L 90.107969 57.36548 
L 91.298369 57.257701 
L 91.595969 57.526444 
L 92.488769 59.219459 
L 92.786369 59.317272 
L 95.167169 59.103987 
L 96.357569 61.171173 
L 98.738369 60.837475 
L 99.333569 61.834243 
L 99.928769 62.922322 
L 100.523969 62.916749 
L 102.904769 62.540164 
L 104.095169 64.690572 
L 104.987969 64.57691 
L 106.773569 64.24487 
L 107.071169 64.422327 
L 107.963969 66.042282 
L 108.261569 66.2737 
L 111.237569 65.658152 
L 111.535169 65.960375 
L 112.427969 67.566782 
L 112.725569 67.741223 
L 115.999169 67.095571 
L 117.189569 68.967056 
L 119.570369 68.391062 
L 119.867969 68.471076 
L 121.058369 70.414083 
L 123.439169 69.864438 
L 124.629569 69.822081 
L 125.522369 71.383134 
L 125.819969 71.668755 
L 128.498369 70.923259 
L 129.093569 71.799788 
L 129.688769 72.826812 
L 129.986369 73.010498 
L 132.664769 72.287472 
L 133.855169 74.288182 
L 134.747969 74.04806 
L 136.533569 73.535472 
L 137.723969 75.524342 
L 138.914369 75.163934 
L 139.807169 74.872507 
L 140.104769 75.159258 
L 140.699969 76.148675 
L 140.997569 76.440317 
L 141.592769 76.406702 
L 142.485569 77.794482 
L 142.783169 77.848228 
L 144.271169 77.320592 
L 144.568769 77.359423 
L 145.163969 78.110571 
L 145.759169 78.987016 
L 146.056769 79.161718 
L 148.139969 78.389977 
L 148.437569 78.544982 
L 149.032769 79.431041 
L 149.330369 79.613238 
L 149.925569 79.403991 
L 150.223169 79.681123 
L 151.115969 81.122107 
L 151.413569 81.21053 
L 153.794369 80.245714 
L 155.282369 82.235392 
L 157.067969 81.484589 
L 157.365569 81.517919 
L 158.555969 83.350907 
L 159.448769 83.170945 
L 160.043969 83.525084 
L 160.936769 83.181577 
L 161.829569 82.80895 
L 162.424769 83.639893 
L 163.019969 84.572573 
L 163.317569 84.690218 
L 164.507969 84.156138 
L 165.103169 84.932478 
L 165.698369 85.854859 
L 165.995969 85.964267 
L 168.079169 84.987689 
L 168.376769 85.030428 
L 169.567169 86.825922 
L 170.459969 86.446028 
L 172.543169 85.45643 
L 172.840769 85.734531 
L 173.733569 87.105774 
L 174.031169 87.333269 
L 176.114369 86.318313 
L 176.411969 86.4618 
L 177.602369 88.166441 
L 179.983169 86.994898 
L 180.280769 87.131217 
L 181.471169 88.890002 
L 183.851969 87.694534 
L 184.149569 87.752615 
L 185.339969 89.508317 
L 186.232769 89.097812 
L 188.018369 88.239481 
L 189.208769 89.983821 
L 189.506369 90.036214 
L 191.589569 88.946624 
L 191.887169 89.110514 
L 193.077569 90.873358 
L 194.267969 90.273175 
L 196.648769 89.082412 
L 197.839169 90.835017 
L 198.136769 90.82771 
L 200.219969 89.717916 
L 201.112769 90.972382 
L 201.707969 91.771566 
L 202.303169 91.506577 
L 203.791169 90.696076 
L 204.088769 90.657498 
L 205.874369 93.131147 
L 207.362369 92.315222 
L 208.255169 91.872908 
L 208.850369 92.645383 
L 209.743169 93.931457 
L 210.040769 94.004955 
L 212.719169 92.469282 
L 213.016769 92.644847 
L 214.207169 94.273449 
L 215.992769 93.33057 
L 216.885569 94.541499 
L 222.242369 101.896269 
L 226.706369 107.649663 
L 231.467969 113.417797 
L 236.229569 118.828332 
L 240.991169 123.903438 
L 245.752769 128.663909 
L 250.811969 133.398961 
L 255.871169 137.82273 
L 260.930369 141.955679 
L 266.287169 146.035987 
L 271.643969 149.832836 
L 277.000769 153.365919 
L 282.655169 156.829358 
L 288.309569 160.039327 
L 294.261569 163.164782 
L 300.511169 166.188226 
L 306.760769 168.968072 
L 313.307969 171.640383 
L 320.152769 174.193779 
L 327.295169 176.619222 
L 334.735169 178.909947 
L 336.223169 179.341238 
L 336.520769 179.234193 
L 340.984769 171.741612 
L 345.448769 164.68537 
L 349.912769 158.040055 
L 354.376769 151.781736 
L 358.840769 145.887877 
L 363.602369 139.97892 
L 368.363969 134.436291 
L 373.125569 129.237281 
L 377.887169 124.360587 
L 382.648769 119.786226 
L 387.707969 115.236292 
L 392.767169 110.98547 
L 397.826369 107.014099 
L 403.183169 103.093311 
L 408.539969 99.4449 
L 414.194369 95.868406 
L 419.848769 92.553656 
L 425.800769 89.326178 
L 431.752769 86.346844 
L 438.002369 83.464751 
L 444.549569 80.69415 
L 451.394369 78.046837 
L 458.536769 75.532182 
L 465.976769 73.157202 
L 473.714369 70.926665 
L 481.749569 68.843231 
L 490.379969 66.842426 
L 499.307969 65.002934 
L 508.831169 63.269491 
L 518.949569 61.655322 
L 529.960769 60.131047 
L 541.567169 58.7508 
L 554.363969 57.458896 
L 568.053569 56.302007 
L 583.231169 55.245212 
L 600.194369 54.29313 
L 619.240769 53.453431 
L 640.965569 52.724602 
L 666.261569 52.105116 
L 696.616769 51.592605 
L 734.411969 51.187424 
L 784.408769 50.887922 
L 810.002369 50.845267 
L 811.192769 53.033313 
L 815.656769 52.89774 
L 816.847169 52.878245 
L 818.037569 55.077425 
L 818.930369 55.072722 
L 820.715969 54.979429 
L 821.013569 55.26226 
L 821.906369 56.996753 
L 822.203969 57.184603 
L 824.882369 56.978479 
L 825.477569 57.633045 
L 826.370369 59.126402 
L 827.263169 59.075017 
L 830.239169 58.741737 
L 830.536769 59.057212 
L 831.429569 60.745631 
L 831.727169 60.898703 
L 835.000769 60.454319 
L 835.298369 60.683263 
L 836.191169 62.353328 
L 836.488769 62.62183 
L 838.869569 62.349422 
L 840.059969 64.413275 
L 843.035969 63.907867 
L 844.226369 65.967405 
L 844.821569 65.919002 
L 846.309569 65.615312 
L 846.607169 65.957758 
L 847.499969 67.564907 
L 847.797569 67.739955 
L 850.475969 67.133013 
L 850.773569 67.258441 
L 851.666369 68.848521 
L 851.963969 69.098306 
L 854.344769 68.514948 
L 854.642369 68.623367 
L 855.832769 70.598524 
L 859.106369 69.76685 
L 860.296769 71.770949 
L 860.594369 71.798894 
L 862.677569 71.214773 
L 863.570369 71.433236 
L 863.867969 71.750107 
L 864.760769 73.229998 
L 865.355969 73.118764 
L 867.439169 72.589782 
L 868.629569 74.566799 
L 869.224769 74.436611 
L 871.307969 73.777756 
L 871.605569 73.807824 
L 872.795969 75.623168 
L 875.771969 74.67531 
L 876.962369 76.59122 
L 877.557569 76.485928 
L 879.343169 75.87147 
L 879.640769 75.892971 
L 880.831169 77.818965 
L 882.914369 77.267813 
L 883.509569 77.072221 
L 884.699969 78.961254 
L 884.997569 79.020944 
L 885.592769 78.844034 
L 886.187969 78.697568 
L 887.675969 78.171301 
L 888.866369 80.103894 
L 889.163969 80.162593 
L 891.247169 79.345633 
L 891.544769 79.369551 
L 892.735169 81.266696 
L 893.330369 81.088687 
L 895.413569 80.279314 
L 896.603969 82.109034 
L 897.496769 81.784226 
L 898.984769 81.166243 
L 899.579969 81.979881 
L 900.472769 83.192862 
L 902.555969 82.29223 
L 902.853569 82.31453 
L 904.043969 84.180658 
L 904.639169 83.973628 
L 906.722369 83.084602 
L 907.912769 84.94082 
L 908.210369 85.032057 
L 910.591169 83.946887 
L 912.079169 85.936347 
L 914.459969 84.830133 
L 914.757569 85.051819 
L 915.352769 85.768706 
L 915.650369 85.840286 
L 916.245569 85.559519 
L 917.138369 85.622631 
L 918.923969 84.848162 
L 919.816769 85.623617 
L 920.411969 85.416032 
L 921.899969 84.72718 
L 922.197569 84.96585 
L 923.090369 86.230005 
L 923.983169 86.052178 
L 925.768769 85.222736 
L 926.066369 85.430793 
L 927.256769 87.121657 
L 928.744769 86.525362 
L 929.935169 88.139324 
L 930.232769 88.09612 
L 931.125569 88.730638 
L 932.911169 87.871389 
L 933.506369 88.659951 
L 934.101569 89.545268 
L 934.399169 89.593111 
L 937.077569 88.307588 
L 938.267969 90.091426 
L 938.565569 90.090192 
L 940.648769 88.999112 
L 940.946369 89.047373 
L 942.136769 90.819469 
L 942.434369 90.792775 
L 945.112769 89.462939 
L 946.303169 91.225003 
L 946.600769 91.265762 
L 948.981569 89.993527 
L 950.469569 91.988099 
L 953.147969 90.524508 
L 953.445569 90.737238 
L 954.635969 92.42439 
L 956.719169 91.281128 
L 957.016769 91.275714 
L 958.207169 92.951903 
L 962.671169 99.226182 
L 967.135169 105.135072 
L 967.730369 105.896475 
L 967.730369 105.896475 
" clip-path="url(#pb18b798684)" style="fill: none; stroke: #159cbe; stroke-width: 1.5; stroke-linecap: square"/>
   </g>
   <g id="patch_6">
    <path d="M 75.227969 200.690684 
L 75.227969 44.570729 
" style="fill: none; stroke: #000000; stroke-width: 0.8; stroke-linejoin: miter; stroke-linecap: square"/>
   </g>
   <g id="patch_7">
    <path d="M 75.227969 200.690684 
L 968.027969 200.690684 
" style="fill: none; stroke: #000000; stroke-width: 0.8; stroke-linejoin: miter; stroke-linecap: square"/>
   </g>
   <g id="text_8">
    <text style="font-size: 11px; font-family: 'DejaVu Sans'; fill: #5d686b" transform="translate(377.337234 20.598281)">Core Z at reference</text>
    <text style="font-size: 11px; font-family: 'DejaVu Sans'; fill: #5d686b" transform="translate(410.501375 32.915875)">23.90 s</text>
   </g>
   <g id="text_9">
    <text style="font-size: 11px; font-family: 'DejaVu Sans'; fill: #267ba8" transform="translate(757.599362 20.598281)">First returned brief</text>
    <text style="font-size: 11px; font-family: 'DejaVu Sans'; fill: #267ba8" transform="translate(788.602175 32.915875)">49.31 s</text>
   </g>
   <g id="patch_8">
    <path d="M 433.977086 134.639933 
Q 619.909915 134.639933 805.842743 134.639933 
" style="fill: none; stroke: #5d686b; stroke-linecap: round"/>
    <path d="M 439.577086 137.439933 
L 433.977086 134.639933 
L 439.577086 131.839933 
" style="fill: none; stroke: #5d686b; stroke-linecap: round"/>
    <path d="M 800.242743 131.839933 
L 805.842743 134.639933 
L 800.242743 137.439933 
" style="fill: none; stroke: #5d686b; stroke-linecap: round"/>
   </g>
   <g id="text_10">
    <text style="font-size: 11px; font-family: 'DejaVu Sans'; text-anchor: middle; fill: #5d686b" x="619.910369" y="124.84651" transform="rotate(-0 619.910369 124.84651)">25.41 s</text>
   </g>
   <g id="text_11">
    <text style="font-weight: 700; font-size: 15px; font-family: 'DejaVu Sans'; text-anchor: start" x="75.227969" y="38.570729" transform="rotate(-0 75.227969 38.570729)">B</text>
   </g>
   <g id="line2d_17">
    <path d="M 430.859969 200.690684 
L 430.859969 44.570729 
" clip-path="url(#pb18b798684)" style="fill: none; stroke-dasharray: 1,1.65; stroke-dashoffset: 0; stroke: #5d686b"/>
   </g>
   <g id="line2d_18">
    <path d="M 808.960769 200.690684 
L 808.960769 44.570729 
" clip-path="url(#pb18b798684)" style="fill: none; stroke-dasharray: 1,1.65; stroke-dashoffset: 0; stroke: #267ba8"/>
   </g>
   <g id="legend_1">
    <g id="line2d_19">
     <path d="M 702.548594 183.195059 
L 714.548594 183.195059 
L 726.548594 183.195059 
" style="fill: none; stroke: #8952ab; stroke-width: 1.5; stroke-linecap: square"/>
    </g>
    <g id="text_12">
     <text style="font-size: 12px; font-family: 'DejaVu Sans'; text-anchor: start" x="736.148594" y="187.395059" transform="rotate(-0 736.148594 187.395059)">All E</text>
    </g>
    <g id="line2d_20">
     <path d="M 786.421094 183.195059 
L 798.421094 183.195059 
L 810.421094 183.195059 
" style="fill: none; stroke: #cf3e87; stroke-width: 1.5; stroke-linecap: square"/>
    </g>
    <g id="text_13">
     <text style="font-size: 12px; font-family: 'DejaVu Sans'; text-anchor: start" x="820.021094" y="187.395059" transform="rotate(-0 820.021094 187.395059)">Core A</text>
    </g>
    <g id="line2d_21">
     <path d="M 883.812344 183.195059 
L 895.812344 183.195059 
L 907.812344 183.195059 
" style="fill: none; stroke: #159cbe; stroke-width: 1.5; stroke-linecap: square"/>
    </g>
    <g id="text_14">
     <text style="font-size: 12px; font-family: 'DejaVu Sans'; text-anchor: start" x="917.412344" y="187.395059" transform="rotate(-0 917.412344 187.395059)">Core B</text>
    </g>
   </g>
  </g>
  <g id="axes_2">
   <g id="patch_9">
    <path d="M 75.227969 348.083933 
L 968.027969 348.083933 
L 968.027969 227.99166 
L 75.227969 227.99166 
z
" style="fill: #ffffff"/>
   </g>
   <g id="patch_10">
    <path d="M 223.135169 348.083933 
L 323.723969 348.083933 
L 323.723969 227.99166 
L 223.135169 227.99166 
z
" clip-path="url(#pc79e1f5b0b)" style="fill: #ba263c; opacity: 0.1"/>
   </g>
   <g id="patch_11">
    <path d="M 325.658369 348.083933 
L 808.960769 348.083933 
L 808.960769 227.99166 
L 325.658369 227.99166 
z
" clip-path="url(#pc79e1f5b0b)" style="fill: #728572; opacity: 0.085"/>
   </g>
   <g id="patch_12">
    <path d="M 964.159169 348.083933 
L 968.027969 348.083933 
L 968.027969 227.99166 
L 964.159169 227.99166 
z
" clip-path="url(#pc79e1f5b0b)" style="fill: #ba263c; opacity: 0.1"/>
   </g>
   <g id="matplotlib.axis_3">
    <g id="xtick_8">
     <g id="line2d_22">
      <g>
       <use xlink:href="#m81fe6092bc" x="75.227969" y="348.083933" style="stroke: #000000; stroke-width: 0.8"/>
      </g>
     </g>
    </g>
    <g id="xtick_9">
     <g id="line2d_23">
      <g>
       <use xlink:href="#m81fe6092bc" x="224.027969" y="348.083933" style="stroke: #000000; stroke-width: 0.8"/>
      </g>
     </g>
    </g>
    <g id="xtick_10">
     <g id="line2d_24">
      <g>
       <use xlink:href="#m81fe6092bc" x="372.827969" y="348.083933" style="stroke: #000000; stroke-width: 0.8"/>
      </g>
     </g>
    </g>
    <g id="xtick_11">
     <g id="line2d_25">
      <g>
       <use xlink:href="#m81fe6092bc" x="521.627969" y="348.083933" style="stroke: #000000; stroke-width: 0.8"/>
      </g>
     </g>
    </g>
    <g id="xtick_12">
     <g id="line2d_26">
      <g>
       <use xlink:href="#m81fe6092bc" x="670.427969" y="348.083933" style="stroke: #000000; stroke-width: 0.8"/>
      </g>
     </g>
    </g>
    <g id="xtick_13">
     <g id="line2d_27">
      <g>
       <use xlink:href="#m81fe6092bc" x="819.227969" y="348.083933" style="stroke: #000000; stroke-width: 0.8"/>
      </g>
     </g>
    </g>
    <g id="xtick_14">
     <g id="line2d_28">
      <g>
       <use xlink:href="#m81fe6092bc" x="968.027969" y="348.083933" style="stroke: #000000; stroke-width: 0.8"/>
      </g>
     </g>
    </g>
   </g>
   <g id="matplotlib.axis_4">
    <g id="ytick_7">
     <g id="line2d_29">
      <g>
       <use xlink:href="#m7bd4ae870b" x="75.227969" y="342.625194" style="stroke: #000000; stroke-width: 0.8"/>
      </g>
     </g>
     <g id="text_15">
      <text style="font-size: 13px; font-family: 'DejaVu Sans'; text-anchor: end" x="68.227969" y="347.564178" transform="rotate(-0 68.227969 347.564178)">0</text>
     </g>
    </g>
    <g id="ytick_8">
     <g id="line2d_30">
      <g>
       <use xlink:href="#m7bd4ae870b" x="75.227969" y="306.406585" style="stroke: #000000; stroke-width: 0.8"/>
      </g>
     </g>
     <g id="text_16">
      <text style="font-size: 13px; font-family: 'DejaVu Sans'; text-anchor: end" x="68.227969" y="311.34557" transform="rotate(-0 68.227969 311.34557)">5</text>
     </g>
    </g>
    <g id="ytick_9">
     <g id="line2d_31">
      <g>
       <use xlink:href="#m7bd4ae870b" x="75.227969" y="270.187977" style="stroke: #000000; stroke-width: 0.8"/>
      </g>
     </g>
     <g id="text_17">
      <text style="font-size: 13px; font-family: 'DejaVu Sans'; text-anchor: end" x="68.227969" y="275.126961" transform="rotate(-0 68.227969 275.126961)">10</text>
     </g>
    </g>
    <g id="ytick_10">
     <g id="line2d_32">
      <g>
       <use xlink:href="#m7bd4ae870b" x="75.227969" y="233.969368" style="stroke: #000000; stroke-width: 0.8"/>
      </g>
     </g>
     <g id="text_18">
      <text style="font-size: 13px; font-family: 'DejaVu Sans'; text-anchor: end" x="68.227969" y="238.908352" transform="rotate(-0 68.227969 238.908352)">15</text>
     </g>
    </g>
    <g id="text_19">
     <!-- Conductance / $g_L$ -->
     <g transform="translate(44.535469 352.537797) rotate(-90)">
      <text>
       <tspan x="0" y="-0.609375" style="font-size: 15px; font-family: 'DejaVu Sans'">C</tspan>
       <tspan x="10.473633" y="-0.609375" style="font-size: 15px; font-family: 'DejaVu Sans'">o</tspan>
       <tspan x="19.650879" y="-0.609375" style="font-size: 15px; font-family: 'DejaVu Sans'">n</tspan>
       <tspan x="29.157715" y="-0.609375" style="font-size: 15px; font-family: 'DejaVu Sans'">d</tspan>
       <tspan x="38.679199" y="-0.609375" style="font-size: 15px; font-family: 'DejaVu Sans'">u</tspan>
       <tspan x="48.186035" y="-0.609375" style="font-size: 15px; font-family: 'DejaVu Sans'">c</tspan>
       <tspan x="56.433105" y="-0.609375" style="font-size: 15px; font-family: 'DejaVu Sans'">t</tspan>
       <tspan x="62.314453" y="-0.609375" style="font-size: 15px; font-family: 'DejaVu Sans'">a</tspan>
       <tspan x="71.506348" y="-0.609375" style="font-size: 15px; font-family: 'DejaVu Sans'">n</tspan>
       <tspan x="81.013184" y="-0.609375" style="font-size: 15px; font-family: 'DejaVu Sans'">c</tspan>
       <tspan x="89.260254" y="-0.609375" style="font-size: 15px; font-family: 'DejaVu Sans'">e</tspan>
       <tspan x="98.48877" y="-0.609375" style="font-size: 15px; font-family: 'DejaVu Sans'"> </tspan>
       <tspan x="103.256836" y="-0.609375" style="font-size: 15px; font-family: 'DejaVu Sans'">/</tspan>
       <tspan x="108.310547" y="-0.609375" style="font-size: 15px; font-family: 'DejaVu Sans'"> </tspan>
       <tspan x="113.078613" y="-0.609375" style="font-style: oblique; font-size: 15px; font-family: 'DejaVu Sans'">g</tspan>
       <tspan x="122.600098" y="1.851562" style="font-style: oblique; font-size: 10.5px; font-family: 'DejaVu Sans'">L</tspan>
      </text>
     </g>
    </g>
   </g>
   <g id="line2d_33">
    <path d="M 75.227969 342.625194 
L 223.432769 342.620823 
L 223.730369 342.472287 
L 224.027969 341.56666 
L 224.623169 338.875196 
L 224.920769 338.22583 
L 225.515969 337.642225 
L 227.003969 336.691335 
L 227.599169 335.921936 
L 229.384769 333.157541 
L 229.682369 333.110908 
L 230.277569 333.447033 
L 230.872769 333.854592 
L 231.467969 333.895323 
L 232.063169 333.524481 
L 232.658369 332.789231 
L 233.253569 331.668717 
L 233.848769 329.977618 
L 235.039169 326.141706 
L 235.336769 325.529038 
L 235.634369 325.198384 
L 235.931969 325.176199 
L 236.229569 325.436051 
L 236.824769 326.508249 
L 237.419969 327.64763 
L 237.717569 327.998702 
L 238.015169 328.094967 
L 238.312769 327.878227 
L 238.610369 327.33299 
L 239.205569 325.349417 
L 240.693569 318.904619 
L 240.991169 318.463446 
L 241.288769 318.642426 
L 242.181569 321.188789 
L 243.371969 324.266053 
L 243.669569 324.616342 
L 243.967169 324.714772 
L 244.264769 324.608938 
L 244.562369 324.314509 
L 245.157569 323.197664 
L 245.752769 321.215257 
L 247.538369 313.267726 
L 247.835969 312.766385 
L 248.133569 312.708444 
L 248.431169 313.153535 
L 249.026369 315.105933 
L 250.216769 319.174826 
L 250.514369 319.988278 
L 250.811969 320.361458 
L 251.109569 320.190952 
L 251.407169 319.449966 
L 251.704769 318.16864 
L 252.299969 314.185658 
L 253.192769 307.116249 
L 253.490369 305.440314 
L 253.787969 304.595573 
L 254.085569 304.706767 
L 254.680769 307.229663 
L 256.168769 313.645784 
L 257.359169 317.93057 
L 257.656769 318.747942 
L 257.954369 319.001821 
L 258.251969 318.642979 
L 258.549569 317.593785 
L 259.144769 313.47924 
L 260.632769 299.971165 
L 260.930369 298.415711 
L 261.227969 297.661151 
L 261.525569 297.902056 
L 262.120769 300.883159 
L 263.608769 308.449706 
L 265.096769 314.644671 
L 265.394369 315.570664 
L 265.691969 315.771746 
L 265.989569 315.147122 
L 266.287169 313.679151 
L 266.882369 308.50187 
L 268.370369 291.160839 
L 268.667969 289.264977 
L 268.965569 288.653467 
L 269.263169 289.469051 
L 271.048769 300.702848 
L 272.536769 308.30208 
L 273.727169 313.191474 
L 274.024769 313.3803 
L 274.322369 312.670603 
L 274.619969 311.041318 
L 275.215169 305.413847 
L 276.107969 292.930705 
L 277.000769 280.309376 
L 277.298369 277.451165 
L 277.595969 276.160252 
L 277.893569 277.23798 
L 279.381569 289.021212 
L 280.869569 298.737966 
L 282.357569 306.69337 
L 283.845569 313.206705 
L 285.333569 318.539372 
L 285.928769 320.37215 
L 286.226369 320.435979 
L 286.523969 318.270819 
L 287.119169 308.463138 
L 288.607169 280.619146 
L 288.904769 277.613109 
L 289.202369 275.950114 
L 289.499969 275.470071 
L 289.797569 276.036072 
L 290.095169 277.456003 
L 293.071169 298.667079 
L 293.963969 303.621646 
L 294.261569 304.785516 
L 294.559169 305.372515 
L 294.856769 305.298521 
L 295.154369 304.516384 
L 295.451969 303.067143 
L 296.047169 298.040743 
L 296.939969 286.667202 
L 299.023169 257.92037 
L 299.320769 255.863974 
L 299.618369 256.004316 
L 300.213569 261.928721 
L 301.403969 273.860196 
L 302.594369 284.027528 
L 303.784769 292.691557 
L 305.272769 301.742989 
L 306.760769 309.153676 
L 308.248769 315.221033 
L 308.843969 317.112527 
L 309.141569 316.101038 
L 309.439169 312.304432 
L 310.331969 294.297929 
L 311.522369 268.034773 
L 312.117569 257.839796 
L 312.415169 255.290395 
L 312.712769 254.423493 
L 313.010369 254.973128 
L 313.307969 256.740428 
L 316.581569 286.943204 
L 317.771969 295.176132 
L 318.962369 301.985758 
L 319.259969 302.595363 
L 319.557569 302.300104 
L 319.855169 301.141762 
L 320.152769 299.124939 
L 320.747969 292.485398 
L 321.640769 277.690007 
L 323.426369 245.223198 
L 324.021569 237.784572 
L 324.319169 235.630759 
L 324.616769 235.750038 
L 325.211969 243.051498 
L 326.104769 254.311248 
L 326.402369 255.780792 
L 331.163969 261.164711 
L 335.925569 266.214853 
L 340.687169 270.951912 
L 345.746369 275.66368 
L 350.805569 280.065698 
L 355.864769 284.17833 
L 361.221569 288.238581 
L 366.578369 292.01677 
L 371.935169 295.532492 
L 377.589569 298.978915 
L 383.243969 302.173115 
L 389.195969 305.283219 
L 395.445569 308.291815 
L 401.695169 311.058012 
L 408.242369 313.717204 
L 415.087169 316.258067 
L 422.229569 318.671608 
L 429.669569 320.951093 
L 437.407169 323.091946 
L 445.739969 325.161606 
L 454.370369 327.074301 
L 463.595969 328.887849 
L 473.416769 330.586595 
L 483.832769 332.159339 
L 495.141569 333.635147 
L 507.343169 334.994963 
L 520.437569 336.226345 
L 534.722369 337.34418 
L 550.495169 338.35304 
L 568.053569 339.251129 
L 587.992769 340.044346 
L 610.907969 340.728489 
L 637.989569 341.30719 
L 670.725569 341.776351 
L 712.389569 342.140327 
L 769.231169 342.399343 
L 879.938369 342.624442 
L 964.456769 342.600303 
L 964.754369 342.441296 
L 965.349569 341.687807 
L 966.242369 339.883963 
L 967.432769 337.320858 
L 967.730369 336.873646 
L 967.730369 336.873646 
" clip-path="url(#pc79e1f5b0b)" style="fill: none; stroke: #cf3e87; stroke-width: 1.25; stroke-linecap: square"/>
   </g>
   <g id="line2d_34">
    <path d="M 75.227969 342.625194 
L 223.432769 342.620748 
L 223.730369 342.467874 
L 224.027969 341.53539 
L 224.623169 338.750207 
L 224.920769 338.071408 
L 225.515969 337.465691 
L 227.003969 336.491197 
L 227.599169 335.706079 
L 229.384769 332.869694 
L 229.682369 332.823313 
L 230.277569 333.169837 
L 230.872769 333.587561 
L 231.467969 333.627924 
L 232.063169 333.242111 
L 232.658369 332.480171 
L 233.253569 331.321776 
L 233.848769 329.571097 
L 235.039169 325.635062 
L 235.336769 325.0136 
L 235.634369 324.690765 
L 235.931969 324.667376 
L 236.229569 324.922998 
L 236.824769 326.006532 
L 237.419969 327.173879 
L 237.717569 327.526104 
L 238.015169 327.619769 
L 238.312769 327.411043 
L 238.610369 326.87127 
L 239.205569 324.890943 
L 240.693569 318.247118 
L 240.991169 317.793007 
L 241.288769 317.977974 
L 242.181569 320.595183 
L 243.371969 323.759874 
L 243.669569 324.126332 
L 243.967169 324.238128 
L 244.264769 324.138797 
L 244.562369 323.846319 
L 245.157569 322.715793 
L 245.752769 320.736483 
L 247.538369 312.766701 
L 247.835969 312.248147 
L 248.133569 312.180804 
L 248.431169 312.587246 
L 249.026369 314.529148 
L 250.216769 318.683323 
L 250.514369 319.511527 
L 250.811969 319.890755 
L 251.109569 319.722804 
L 251.407169 318.989979 
L 251.704769 317.683898 
L 252.299969 313.584152 
L 253.192769 306.484266 
L 253.490369 304.800847 
L 253.787969 303.929439 
L 254.085569 304.024973 
L 254.680769 306.590923 
L 256.168769 313.122828 
L 257.359169 317.484936 
L 257.656769 318.319014 
L 257.954369 318.590139 
L 258.251969 318.242412 
L 258.549569 317.214544 
L 259.144769 313.114931 
L 260.632769 299.435542 
L 260.930369 297.873401 
L 261.227969 297.130707 
L 261.525569 297.34586 
L 261.823169 298.571125 
L 263.311169 306.554954 
L 264.799169 313.093379 
L 265.394369 315.191629 
L 265.691969 315.405767 
L 265.989569 314.785793 
L 266.287169 313.320875 
L 266.882369 308.145848 
L 268.370369 290.636363 
L 268.667969 288.737833 
L 268.965569 288.140672 
L 269.263169 288.956696 
L 271.048769 300.294079 
L 272.536769 307.967408 
L 273.727169 312.905323 
L 274.024769 313.106371 
L 274.322369 312.393902 
L 274.619969 310.768509 
L 275.215169 305.138943 
L 276.107969 292.643791 
L 277.000769 279.850861 
L 277.298369 276.982318 
L 277.595969 275.648552 
L 277.893569 276.419475 
L 279.679169 290.43409 
L 281.167169 299.894732 
L 282.655169 307.640451 
L 284.143169 313.982109 
L 285.333569 318.17077 
L 285.631169 318.543707 
L 285.928769 317.566712 
L 286.226369 315.035419 
L 286.821569 306.871083 
L 288.904769 272.427174 
L 289.202369 270.970819 
L 289.499969 270.702236 
L 289.797569 271.455769 
L 290.095169 273.113095 
L 292.475969 291.913829 
L 293.666369 299.411819 
L 294.261569 302.360237 
L 294.559169 303.045246 
L 294.856769 303.064774 
L 295.154369 302.363511 
L 295.451969 301.005071 
L 296.047169 296.130631 
L 296.939969 284.858649 
L 299.023169 256.405517 
L 299.320769 254.283708 
L 299.618369 252.989869 
L 299.915969 253.180281 
L 300.511169 259.198669 
L 301.701569 271.533799 
L 302.891969 282.045103 
L 304.082369 291.002246 
L 305.570369 300.359899 
L 307.058369 308.021297 
L 308.248769 312.956293 
L 308.546369 312.962175 
L 308.843969 311.265647 
L 309.439169 303.88103 
L 310.331969 286.79059 
L 311.522369 261.77101 
L 312.117569 252.113748 
L 312.415169 249.816561 
L 312.712769 249.226261 
L 313.010369 250.027947 
L 313.307969 252.052538 
L 315.986369 279.132173 
L 317.176769 288.520011 
L 318.367169 296.519798 
L 318.962369 299.890351 
L 319.259969 300.603844 
L 319.557569 300.39085 
L 319.855169 299.305067 
L 320.152769 297.360216 
L 320.747969 290.84893 
L 321.640769 276.248884 
L 323.426369 244.016904 
L 324.021569 236.581375 
L 324.319169 234.42047 
L 324.616769 233.4504 
L 324.914369 233.913405 
L 325.211969 236.895572 
L 326.104769 248.851432 
L 326.402369 250.411827 
L 331.163969 256.128595 
L 335.925569 261.490952 
L 340.687169 266.520869 
L 345.448769 271.238957 
L 350.507969 275.931854 
L 355.567169 280.316243 
L 360.626369 284.412403 
L 365.983169 288.456394 
L 371.339969 292.219452 
L 376.696769 295.721094 
L 382.351169 299.153714 
L 388.303169 302.49596 
L 394.255169 305.581242 
L 400.504769 308.565827 
L 407.051969 311.434958 
L 413.599169 314.062396 
L 420.443969 316.572919 
L 427.586369 318.957639 
L 435.026369 321.209905 
L 442.763969 323.325194 
L 451.096769 325.37014 
L 459.727169 327.259995 
L 468.952769 329.051887 
L 478.773569 330.730349 
L 489.189569 332.284312 
L 500.498369 333.742498 
L 512.699969 335.086076 
L 525.794369 336.302754 
L 540.376769 337.428071 
L 556.447169 338.437689 
L 574.303169 339.331186 
L 594.539969 340.11564 
L 617.752769 340.788246 
L 645.131969 341.353811 
L 678.463169 341.812901 
L 721.019969 342.166739 
L 779.647169 342.41671 
L 893.627969 342.624974 
L 964.456769 342.599451 
L 964.754369 342.437886 
L 965.349569 341.669827 
L 966.242369 339.8299 
L 967.432769 337.195866 
L 967.730369 336.735053 
L 967.730369 336.735053 
" clip-path="url(#pc79e1f5b0b)" style="fill: none; stroke: #159cbe; stroke-width: 1.25; stroke-linecap: square"/>
   </g>
   <g id="line2d_35">
    <path d="M 75.227969 342.625194 
L 223.730369 342.53127 
L 224.027969 341.978035 
L 224.623169 340.329553 
L 224.920769 339.936992 
L 225.515969 339.600463 
L 227.003969 339.101023 
L 227.896769 338.419218 
L 229.087169 337.338705 
L 229.384769 337.200187 
L 229.979969 337.282641 
L 231.170369 337.766972 
L 231.765569 337.724484 
L 232.360769 337.472989 
L 232.955969 337.036428 
L 233.551169 336.356652 
L 235.336769 333.730238 
L 235.634369 333.59541 
L 235.931969 333.616422 
L 236.527169 334.051532 
L 237.717569 335.233065 
L 238.015169 335.313381 
L 238.312769 335.248658 
L 238.610369 335.028461 
L 239.205569 334.169081 
L 240.693569 331.258948 
L 240.991169 331.087846 
L 241.288769 331.216426 
L 243.669569 334.3365 
L 244.264769 334.4232 
L 244.859969 334.179295 
L 245.455169 333.613996 
L 246.050369 332.645178 
L 247.240769 330.40912 
L 247.538369 330.069753 
L 247.835969 329.89901 
L 248.133569 329.920754 
L 248.431169 330.140625 
L 249.026369 331.0409 
L 250.216769 332.910398 
L 250.811969 333.48186 
L 251.109569 333.466408 
L 251.407169 333.231952 
L 251.704769 332.780999 
L 252.299969 331.312484 
L 253.192769 328.696337 
L 253.490369 328.092912 
L 253.787969 327.80455 
L 254.085569 327.893543 
L 254.680769 328.980713 
L 256.168769 331.675244 
L 257.359169 333.44237 
L 257.656769 333.784301 
L 257.954369 333.925143 
L 258.251969 333.849261 
L 258.549569 333.5344 
L 259.144769 332.204298 
L 260.632769 327.734323 
L 260.930369 327.238545 
L 261.227969 327.026815 
L 261.525569 327.153063 
L 262.120769 328.273282 
L 263.608769 331.107517 
L 265.096769 333.382044 
L 265.394369 333.725359 
L 265.691969 333.837237 
L 265.989569 333.688431 
L 266.287169 333.275595 
L 266.882369 331.758706 
L 268.370369 326.593267 
L 268.667969 326.039368 
L 268.965569 325.900196 
L 269.263169 326.207178 
L 271.048769 329.981729 
L 272.536769 332.478578 
L 273.727169 334.063724 
L 274.024769 334.162754 
L 274.322369 334.008921 
L 274.619969 333.600845 
L 275.215169 332.132388 
L 276.107969 328.835829 
L 277.000769 325.461237 
L 277.298369 324.699008 
L 277.595969 324.371427 
L 277.893569 324.637664 
L 279.679169 328.780431 
L 281.167169 331.514513 
L 282.655169 333.708666 
L 284.143169 335.469514 
L 285.333569 336.543879 
L 285.631169 336.494442 
L 285.928769 336.18713 
L 286.523969 334.845371 
L 287.416769 331.548381 
L 288.607169 326.860405 
L 288.904769 326.272456 
L 289.202369 325.991328 
L 289.499969 325.984035 
L 289.797569 326.218025 
L 290.392769 327.246621 
L 291.583169 329.72841 
L 293.071169 332.275284 
L 294.261569 333.866235 
L 294.559169 334.058575 
L 294.856769 334.11142 
L 295.154369 334.01806 
L 295.451969 333.788527 
L 296.047169 332.90117 
L 296.939969 330.761733 
L 299.023169 325.223836 
L 299.618369 324.584068 
L 299.915969 324.662903 
L 300.511169 325.987054 
L 301.701569 328.672153 
L 303.189569 331.427618 
L 304.677569 333.638931 
L 306.165569 335.41355 
L 307.653569 336.837715 
L 307.951169 337.078742 
L 308.248769 337.175561 
L 308.546369 337.074704 
L 308.843969 336.773036 
L 309.439169 335.608743 
L 310.331969 332.894229 
L 311.819969 328.016692 
L 312.117569 327.32474 
L 312.415169 326.980345 
L 312.712769 326.918237 
L 313.010369 327.096499 
L 313.605569 328.040176 
L 315.093569 330.920399 
L 316.581569 333.231877 
L 318.069569 335.086882 
L 318.962369 335.988357 
L 319.259969 336.128705 
L 319.557569 336.133714 
L 319.855169 336.011147 
L 320.450369 335.38646 
L 321.045569 334.300624 
L 322.235969 331.386292 
L 323.723969 327.873742 
L 324.319169 327.129902 
L 324.616769 327.012286 
L 324.914369 327.111479 
L 325.509569 328.219542 
L 326.997569 331.064389 
L 328.485569 333.347433 
L 329.973569 335.179618 
L 331.461569 336.64998 
L 332.949569 337.829973 
L 334.735169 338.942592 
L 336.520769 339.791559 
L 346.043969 341.298882 
L 351.103169 341.821864 
L 357.055169 342.199724 
L 364.792769 342.447768 
L 376.994369 342.583537 
L 407.349569 342.624259 
L 964.456769 342.609398 
L 965.051969 342.321523 
L 965.647169 341.728224 
L 967.730369 339.208619 
L 967.730369 339.208619 
" clip-path="url(#pc79e1f5b0b)" style="fill: none; stroke-dasharray: 4.625,2; stroke-dashoffset: 0; stroke: #cf3e87; stroke-width: 1.25"/>
   </g>
   <g id="line2d_36">
    <path d="M 75.227969 342.625194 
L 223.730369 342.535999 
L 224.027969 342.010623 
L 224.623169 340.44515 
L 225.218369 339.876746 
L 226.111169 339.597273 
L 227.003969 339.278483 
L 227.896769 338.631011 
L 229.087169 337.604907 
L 229.384769 337.473364 
L 229.979969 337.551666 
L 231.170369 338.011609 
L 231.765569 337.97126 
L 232.360769 337.732429 
L 232.955969 337.317851 
L 233.551169 336.672305 
L 235.336769 334.178144 
L 235.634369 334.050106 
L 235.931969 334.07006 
L 236.527169 334.48326 
L 237.717569 335.605296 
L 238.015169 335.681569 
L 238.312769 335.620105 
L 238.610369 335.410995 
L 239.205569 334.59489 
L 240.693569 331.831297 
L 240.991169 331.668811 
L 241.288769 331.790916 
L 243.669569 334.753878 
L 244.264769 334.836213 
L 244.859969 334.60459 
L 245.455169 334.067756 
L 246.050369 333.147723 
L 247.240769 331.024263 
L 247.835969 330.539839 
L 248.133569 330.560488 
L 248.431169 330.769287 
L 249.026369 331.624229 
L 250.216769 333.399588 
L 250.811969 333.942274 
L 251.109569 333.9276 
L 251.407169 333.70495 
L 252.002369 332.65681 
L 253.490369 328.824687 
L 253.787969 328.550846 
L 254.085569 328.635357 
L 254.680769 329.667783 
L 256.168769 332.22663 
L 257.359169 333.904773 
L 257.656769 334.229486 
L 257.954369 334.363235 
L 258.251969 334.291174 
L 258.549569 333.992169 
L 259.144769 332.729044 
L 260.632769 328.484155 
L 260.930369 328.013342 
L 261.227969 327.812274 
L 261.525569 327.932164 
L 262.120769 328.995975 
L 263.608769 331.687492 
L 265.096769 333.847484 
L 265.394369 334.173512 
L 265.691969 334.279756 
L 265.989569 334.138443 
L 266.287169 333.746396 
L 266.882369 332.305889 
L 268.370369 327.400557 
L 268.667969 326.874549 
L 268.965569 326.742386 
L 269.263169 327.03391 
L 271.048769 330.618393 
L 272.536769 332.989512 
L 273.727169 334.494838 
L 274.024769 334.588881 
L 274.322369 334.442795 
L 274.619969 334.055267 
L 275.215169 332.660755 
L 276.107969 329.530195 
L 277.000769 326.325531 
L 277.298369 325.601684 
L 277.595969 325.290598 
L 277.893569 325.543429 
L 279.679169 329.477586 
L 281.167169 332.073993 
L 282.655169 334.157659 
L 284.143169 335.829839 
L 285.333569 336.850104 
L 285.631169 336.803157 
L 285.928769 336.51132 
L 286.523969 335.237125 
L 287.416769 332.106155 
L 288.607169 327.654243 
L 288.904769 327.0959 
L 289.202369 326.828929 
L 289.499969 326.822003 
L 289.797569 327.044211 
L 290.392769 328.021012 
L 291.880769 330.90503 
L 293.368769 333.219544 
L 294.261569 334.307293 
L 294.559169 334.489949 
L 294.856769 334.540132 
L 295.154369 334.451473 
L 295.749569 333.881104 
L 296.344769 332.778481 
L 297.535169 329.790582 
L 298.725569 326.639488 
L 299.320769 325.711126 
L 299.618369 325.492532 
L 299.915969 325.567397 
L 300.511169 326.82487 
L 301.701569 329.37476 
L 303.189569 331.991474 
L 304.677569 334.091435 
L 306.165569 335.776693 
L 307.653569 337.129145 
L 308.248769 337.449978 
L 308.546369 337.3542 
L 308.843969 337.067722 
L 309.439169 335.962058 
L 310.331969 333.384233 
L 311.819969 328.752305 
L 312.117569 328.095197 
L 312.415169 327.768144 
L 312.712769 327.709163 
L 313.010369 327.878448 
L 313.605569 328.774607 
L 315.093569 331.509795 
L 316.581569 333.704879 
L 318.069569 335.466475 
L 318.962369 336.322556 
L 319.259969 336.455836 
L 319.557569 336.460593 
L 320.152769 336.108607 
L 320.747969 335.281187 
L 321.640769 333.40243 
L 323.426369 329.17815 
L 324.021569 328.189424 
L 324.319169 327.91017 
L 324.616769 327.798476 
L 324.914369 327.892674 
L 325.509569 328.94494 
L 326.997569 331.646535 
L 328.485569 333.814616 
L 329.973569 335.554541 
L 331.461569 336.950863 
L 332.949569 338.071437 
L 334.735169 339.12803 
L 336.520769 339.915181 
L 349.019969 341.651757 
L 354.674369 342.082324 
L 361.519169 342.369979 
L 371.637569 342.546526 
L 391.279169 342.618084 
L 526.687169 342.625194 
L 964.754369 342.515566 
L 965.349569 342.073147 
L 966.242369 341.029822 
L 967.432769 339.567798 
L 967.730369 339.320876 
L 967.730369 339.320876 
" clip-path="url(#pc79e1f5b0b)" style="fill: none; stroke-dasharray: 4.625,2; stroke-dashoffset: 0; stroke: #159cbe; stroke-width: 1.25"/>
   </g>
   <g id="patch_13">
    <path d="M 75.227969 348.083933 
L 75.227969 227.99166 
" style="fill: none; stroke: #000000; stroke-width: 0.8; stroke-linejoin: miter; stroke-linecap: square"/>
   </g>
   <g id="patch_14">
    <path d="M 75.227969 348.083933 
L 968.027969 348.083933 
" style="fill: none; stroke: #000000; stroke-width: 0.8; stroke-linejoin: miter; stroke-linecap: square"/>
   </g>
   <g id="line2d_37">
    <path d="M 430.859969 348.083933 
L 430.859969 227.99166 
" clip-path="url(#pc79e1f5b0b)" style="fill: none; stroke-dasharray: 1,1.65; stroke-dashoffset: 0; stroke: #5d686b"/>
   </g>
   <g id="line2d_38">
    <path d="M 808.960769 348.083933 
L 808.960769 227.99166 
" clip-path="url(#pc79e1f5b0b)" style="fill: none; stroke-dasharray: 1,1.65; stroke-dashoffset: 0; stroke: #267ba8"/>
   </g>
   <g id="legend_2">
    <g id="line2d_39">
     <path d="M 799.932344 243.709785 
L 811.932344 243.709785 
L 823.932344 243.709785 
" style="fill: none; stroke: #cf3e87; stroke-width: 1.25; stroke-linecap: square"/>
    </g>
    <g id="text_20">
     <text style="font-size: 12px; font-family: 'DejaVu Sans'; text-anchor: start" x="833.532344" y="247.909785" transform="rotate(-0 833.532344 247.909785)">K</text>
    </g>
    <g id="line2d_40">
     <path d="M 865.401719 243.709785 
L 877.401719 243.709785 
L 889.401719 243.709785 
" style="fill: none; stroke-dasharray: 4.625,2; stroke-dashoffset: 0; stroke: #cf3e87; stroke-width: 1.25"/>
    </g>
    <g id="text_21">
     <text style="font-size: 12px; font-family: 'DejaVu Sans'; text-anchor: start" x="899.001719" y="247.909785" transform="rotate(-0 899.001719 247.909785)">Applied G</text>
    </g>
   </g>
  </g>
  <g id="axes_3">
   <g id="patch_15">
    <path d="M 75.227969 471.458729 
L 968.027969 471.458729 
L 968.027969 375.38491 
L 75.227969 375.38491 
z
" style="fill: #ffffff"/>
   </g>
   <g id="patch_16">
    <path d="M 223.135169 471.458729 
L 323.723969 471.458729 
L 323.723969 375.38491 
L 223.135169 375.38491 
z
" clip-path="url(#p53b41b5a03)" style="fill: #ba263c; opacity: 0.1"/>
   </g>
   <g id="patch_17">
    <path d="M 325.658369 471.458729 
L 808.960769 471.458729 
L 808.960769 375.38491 
L 325.658369 375.38491 
z
" clip-path="url(#p53b41b5a03)" style="fill: #728572; opacity: 0.085"/>
   </g>
   <g id="patch_18">
    <path d="M 964.159169 471.458729 
L 968.027969 471.458729 
L 968.027969 375.38491 
L 964.159169 375.38491 
z
" clip-path="url(#p53b41b5a03)" style="fill: #ba263c; opacity: 0.1"/>
   </g>
   <g id="matplotlib.axis_5">
    <g id="xtick_15">
     <g id="line2d_41">
      <g>
       <use xlink:href="#m81fe6092bc" x="75.227969" y="471.458729" style="stroke: #000000; stroke-width: 0.8"/>
      </g>
     </g>
     <g id="text_22">
      <text style="font-size: 13px; font-family: 'DejaVu Sans'; text-anchor: middle" x="75.227969" y="488.336697" transform="rotate(-0 75.227969 488.336697)">0</text>
     </g>
    </g>
    <g id="xtick_16">
     <g id="line2d_42">
      <g>
       <use xlink:href="#m81fe6092bc" x="224.027969" y="471.458729" style="stroke: #000000; stroke-width: 0.8"/>
      </g>
     </g>
     <g id="text_23">
      <text style="font-size: 13px; font-family: 'DejaVu Sans'; text-anchor: middle" x="224.027969" y="488.336697" transform="rotate(-0 224.027969 488.336697)">10</text>
     </g>
    </g>
    <g id="xtick_17">
     <g id="line2d_43">
      <g>
       <use xlink:href="#m81fe6092bc" x="372.827969" y="471.458729" style="stroke: #000000; stroke-width: 0.8"/>
      </g>
     </g>
     <g id="text_24">
      <text style="font-size: 13px; font-family: 'DejaVu Sans'; text-anchor: middle" x="372.827969" y="488.336697" transform="rotate(-0 372.827969 488.336697)">20</text>
     </g>
    </g>
    <g id="xtick_18">
     <g id="line2d_44">
      <g>
       <use xlink:href="#m81fe6092bc" x="521.627969" y="471.458729" style="stroke: #000000; stroke-width: 0.8"/>
      </g>
     </g>
     <g id="text_25">
      <text style="font-size: 13px; font-family: 'DejaVu Sans'; text-anchor: middle" x="521.627969" y="488.336697" transform="rotate(-0 521.627969 488.336697)">30</text>
     </g>
    </g>
    <g id="xtick_19">
     <g id="line2d_45">
      <g>
       <use xlink:href="#m81fe6092bc" x="670.427969" y="471.458729" style="stroke: #000000; stroke-width: 0.8"/>
      </g>
     </g>
     <g id="text_26">
      <text style="font-size: 13px; font-family: 'DejaVu Sans'; text-anchor: middle" x="670.427969" y="488.336697" transform="rotate(-0 670.427969 488.336697)">40</text>
     </g>
    </g>
    <g id="xtick_20">
     <g id="line2d_46">
      <g>
       <use xlink:href="#m81fe6092bc" x="819.227969" y="471.458729" style="stroke: #000000; stroke-width: 0.8"/>
      </g>
     </g>
     <g id="text_27">
      <text style="font-size: 13px; font-family: 'DejaVu Sans'; text-anchor: middle" x="819.227969" y="488.336697" transform="rotate(-0 819.227969 488.336697)">50</text>
     </g>
    </g>
    <g id="xtick_21">
     <g id="line2d_47">
      <g>
       <use xlink:href="#m81fe6092bc" x="968.027969" y="471.458729" style="stroke: #000000; stroke-width: 0.8"/>
      </g>
     </g>
     <g id="text_28">
      <text style="font-size: 13px; font-family: 'DejaVu Sans'; text-anchor: middle" x="968.027969" y="488.336697" transform="rotate(-0 968.027969 488.336697)">60</text>
     </g>
    </g>
    <g id="text_29">
     <text style="font-size: 15px; font-family: 'DejaVu Sans'; text-anchor: middle" x="521.627969" y="506.437947" transform="rotate(-0 521.627969 506.437947)">Time (s)</text>
    </g>
   </g>
   <g id="matplotlib.axis_6">
    <g id="ytick_11">
     <g id="line2d_48">
      <g>
       <use xlink:href="#m7bd4ae870b" x="75.227969" y="467.091737" style="stroke: #000000; stroke-width: 0.8"/>
      </g>
     </g>
     <g id="text_30">
      <text style="font-size: 13px; font-family: 'DejaVu Sans'; text-anchor: end" x="68.227969" y="472.030721" transform="rotate(-0 68.227969 472.030721)">0.0</text>
     </g>
    </g>
    <g id="ytick_12">
     <g id="line2d_49">
      <g>
       <use xlink:href="#m7bd4ae870b" x="75.227969" y="427.73121" style="stroke: #000000; stroke-width: 0.8"/>
      </g>
     </g>
     <g id="text_31">
      <text style="font-size: 13px; font-family: 'DejaVu Sans'; text-anchor: end" x="68.227969" y="432.670195" transform="rotate(-0 68.227969 432.670195)">0.1</text>
     </g>
    </g>
    <g id="ytick_13">
     <g id="line2d_50">
      <g>
       <use xlink:href="#m7bd4ae870b" x="75.227969" y="388.370684" style="stroke: #000000; stroke-width: 0.8"/>
      </g>
     </g>
     <g id="text_32">
      <text style="font-size: 13px; font-family: 'DejaVu Sans'; text-anchor: end" x="68.227969" y="393.309668" transform="rotate(-0 68.227969 393.309668)">0.2</text>
     </g>
    </g>
    <g id="text_33">
     <text style="font-size: 15px; font-family: 'DejaVu Sans'" transform="translate(23.637656 452.169085) rotate(-90)">ηM × M</text>
     <text style="font-size: 15px; font-family: 'DejaVu Sans'" transform="translate(40.434375 466.547991) rotate(-90)">(mV equiv.)</text>
    </g>
   </g>
   <g id="line2d_51">
    <path d="M 75.227969 467.091737 
L 76.418369 467.078725 
L 76.715969 466.941142 
L 77.013569 465.790525 
L 77.906369 465.82716 
L 80.287169 465.993709 
L 80.584769 465.364423 
L 80.882369 465.025237 
L 84.155969 465.427427 
L 84.453569 464.988215 
L 84.751169 464.092718 
L 87.727169 464.634085 
L 88.024769 464.53468 
L 88.322369 464.161863 
L 91.298369 464.685269 
L 91.595969 464.418538 
L 91.893569 463.306406 
L 95.464769 464.105332 
L 95.762369 463.98032 
L 96.059969 463.559017 
L 99.333569 464.245891 
L 99.631169 463.254237 
L 99.928769 462.799324 
L 103.202369 463.642673 
L 103.499969 463.44821 
L 103.797569 462.33368 
L 105.880769 462.933496 
L 107.368769 463.32643 
L 107.666369 462.877525 
L 107.963969 461.902626 
L 111.832769 463.081698 
L 112.130369 462.546284 
L 112.427969 461.59919 
L 115.701569 462.681738 
L 115.999169 462.697178 
L 116.296769 462.118458 
L 119.272769 463.001922 
L 119.570369 462.684668 
L 119.867969 461.655938 
L 123.736769 462.8949 
L 124.629569 463.086125 
L 124.927169 462.071379 
L 125.224769 461.644925 
L 128.200769 462.62999 
L 128.498369 462.707983 
L 128.795969 462.655036 
L 129.093569 462.018838 
L 129.688769 462.140863 
L 132.069569 462.868517 
L 132.367169 462.553007 
L 132.664769 461.086905 
L 133.259969 461.229978 
L 135.938369 462.181439 
L 136.533569 460.303747 
L 139.509569 461.533486 
L 140.402369 461.847957 
L 140.699969 461.8441 
L 140.997569 460.692656 
L 141.295169 460.445128 
L 144.271169 461.650009 
L 144.866369 461.860566 
L 145.163969 461.780443 
L 145.461569 461.119427 
L 149.627969 462.555399 
L 149.925569 461.688356 
L 150.223169 461.279585 
L 153.199169 462.323098 
L 153.496769 461.727128 
L 153.794369 460.349802 
L 157.960769 461.96856 
L 158.258369 461.946115 
L 158.555969 460.699325 
L 158.853569 460.399999 
L 161.829569 461.612553 
L 163.615169 462.225457 
L 163.912769 461.673777 
L 164.210369 460.371678 
L 164.805569 460.570112 
L 167.186369 461.531839 
L 167.483969 461.4988 
L 167.781569 460.054967 
L 168.079169 459.53798 
L 170.757569 460.78211 
L 171.650369 461.141073 
L 171.947969 460.861959 
L 172.245569 459.377274 
L 172.543169 459.239171 
L 175.221569 460.532522 
L 175.816769 460.783041 
L 176.114369 460.741054 
L 176.411969 459.721643 
L 176.709569 459.373261 
L 179.387969 460.625313 
L 179.983169 458.635037 
L 180.875969 459.073091 
L 183.256769 460.23804 
L 183.851969 458.124035 
L 185.339969 458.945771 
L 187.125569 459.845704 
L 187.720769 457.590266 
L 191.291969 459.601273 
L 191.589569 459.737183 
L 191.887169 459.235101 
L 192.184769 457.745968 
L 192.482369 457.695893 
L 195.160769 459.242964 
L 196.648769 459.98039 
L 196.946369 459.429478 
L 197.243969 457.946101 
L 197.541569 457.93751 
L 200.219969 459.441692 
L 200.517569 459.586962 
L 200.815169 459.158272 
L 201.112769 457.640644 
L 201.410369 457.444986 
L 203.791169 458.861478 
L 204.088769 458.570214 
L 204.981569 458.736091 
L 205.279169 458.784996 
L 207.659969 460.00474 
L 207.957569 459.449486 
L 208.255169 457.937744 
L 208.552769 457.151617 
L 208.850369 456.85165 
L 211.826369 458.693518 
L 212.123969 458.796326 
L 212.719169 456.270553 
L 213.016769 455.745531 
L 213.314369 455.800326 
L 215.695169 457.469127 
L 216.587969 457.900896 
L 216.885569 456.495669 
L 217.183169 455.910885 
L 218.373569 456.705506 
L 218.671169 456.355027 
L 218.968769 455.761722 
L 219.861569 452.898744 
L 224.623169 434.889165 
L 226.706369 428.566578 
L 228.789569 422.955806 
L 231.170369 417.372145 
L 233.253569 412.987522 
L 235.039169 409.732933 
L 236.229569 407.872631 
L 238.015169 405.727858 
L 239.800769 403.041047 
L 241.586369 400.905195 
L 246.943169 394.878621 
L 248.133569 393.905929 
L 248.431169 393.776662 
L 249.323969 393.869014 
L 249.919169 393.837342 
L 250.514369 393.490492 
L 253.192769 391.226159 
L 254.978369 390.183179 
L 257.656769 388.508772 
L 259.739969 387.04542 
L 261.227969 386.417671 
L 261.525569 386.353417 
L 261.823169 386.510087 
L 262.418369 387.357538 
L 263.311169 388.877385 
L 263.906369 389.564682 
L 264.203969 389.740289 
L 264.501569 389.768725 
L 265.096769 389.417285 
L 267.477569 387.571838 
L 268.370369 387.094269 
L 269.263169 386.743409 
L 269.560769 386.810774 
L 270.155969 387.655425 
L 271.346369 389.988566 
L 271.941569 390.641409 
L 272.239169 390.768572 
L 272.536769 390.744855 
L 273.131969 390.293492 
L 275.215169 388.447721 
L 276.703169 387.413227 
L 277.595969 387.052543 
L 277.893569 387.285093 
L 278.191169 388.058204 
L 278.786369 390.842483 
L 280.571969 399.465121 
L 282.357569 407.112669 
L 284.143169 413.895395 
L 285.928769 419.899113 
L 286.226369 420.436536 
L 286.523969 420.185919 
L 289.499969 412.319666 
L 290.987969 409.19407 
L 291.583169 408.615323 
L 292.475969 408.104209 
L 293.071169 407.351283 
L 294.559169 404.238129 
L 296.344769 400.748522 
L 297.535169 398.857715 
L 298.725569 397.263301 
L 299.320769 396.649752 
L 299.618369 396.883751 
L 300.213569 399.291558 
L 301.999169 406.958734 
L 303.784769 413.758867 
L 305.570369 419.790009 
L 307.355969 425.139119 
L 308.843969 429.018321 
L 309.141569 428.948162 
L 309.736769 427.029546 
L 311.224769 421.982228 
L 312.712769 417.7536 
L 313.903169 414.79294 
L 314.200769 414.453656 
L 314.498369 414.516424 
L 315.093569 415.417567 
L 316.283969 417.527476 
L 316.879169 418.032045 
L 317.176769 418.03979 
L 317.474369 417.81753 
L 317.771969 417.301671 
L 319.557569 412.440711 
L 321.343169 408.017719 
L 322.533569 405.467278 
L 323.723969 403.341977 
L 324.319169 402.465244 
L 324.616769 402.430468 
L 324.914369 403.321977 
L 326.699969 410.533142 
L 328.485569 416.929064 
L 330.271169 422.601704 
L 332.056769 427.632854 
L 333.842369 432.095058 
L 335.925569 436.667298 
L 338.008769 440.642186 
L 340.091969 444.097763 
L 342.175169 447.101876 
L 344.258369 449.713508 
L 346.341569 451.983937 
L 348.424769 453.957738 
L 350.805569 455.899771 
L 353.186369 457.554649 
L 355.864769 459.125763 
L 358.543169 460.438056 
L 361.519169 461.644218 
L 364.792769 462.720049 
L 368.363969 463.652887 
L 372.530369 464.492746 
L 377.291969 465.204512 
L 382.648769 465.775089 
L 389.195969 466.243786 
L 397.528769 466.607393 
L 408.837569 466.865234 
L 426.693569 467.02352 
L 464.786369 467.086464 
L 771.909569 467.083241 
L 809.109569 467.039356 
L 809.704769 466.349409 
L 815.656769 466.573963 
L 815.954369 466.534355 
L 816.251969 465.616462 
L 816.549569 465.499485 
L 819.823169 465.806242 
L 820.120769 465.575607 
L 820.418369 464.791555 
L 824.287169 465.308635 
L 824.584769 465.204534 
L 824.882369 464.331856 
L 829.346369 465.01805 
L 829.643969 464.54587 
L 829.941569 463.793364 
L 833.810369 464.537386 
L 834.405569 464.591944 
L 834.703169 463.590798 
L 835.000769 463.430289 
L 837.976769 464.085986 
L 838.571969 462.655705 
L 841.845569 463.522287 
L 842.143169 463.559196 
L 842.440769 462.520289 
L 842.738369 462.120602 
L 845.416769 462.937197 
L 845.714369 462.580238 
L 846.011969 461.570726 
L 849.285569 462.659269 
L 850.773569 462.972207 
L 851.071169 462.692591 
L 854.047169 463.48801 
L 854.344769 463.529926 
L 854.642369 462.34934 
L 854.939969 462.118189 
L 858.213569 463.092179 
L 858.511169 462.607136 
L 858.808769 461.712295 
L 862.082369 462.772869 
L 862.677569 462.934225 
L 862.975169 462.735665 
L 863.272769 461.38726 
L 863.867969 461.54794 
L 866.546369 462.454778 
L 866.843969 462.242184 
L 867.141569 460.934232 
L 867.736769 461.112918 
L 870.712769 462.195461 
L 871.307969 462.373273 
L 871.903169 461.370356 
L 874.879169 462.40053 
L 875.176769 461.779666 
L 875.474369 460.597776 
L 878.450369 461.772699 
L 878.747969 461.841886 
L 879.045569 460.79781 
L 879.343169 460.260665 
L 882.319169 461.498472 
L 882.914369 461.710841 
L 883.211969 461.381366 
L 883.509569 459.883057 
L 884.104769 460.066268 
L 886.783169 461.210215 
L 887.080769 460.51875 
L 887.378369 459.331036 
L 890.354369 460.736292 
L 890.949569 460.936653 
L 891.247169 459.817288 
L 891.544769 459.287461 
L 893.925569 460.441425 
L 894.223169 460.514267 
L 894.520769 460.427824 
L 895.711169 460.940194 
L 896.008769 460.743238 
L 896.901569 460.837598 
L 898.984769 461.652359 
L 899.282369 461.574921 
L 899.579969 461.229034 
L 900.770369 461.452619 
L 902.555969 462.088275 
L 902.853569 461.891923 
L 903.151169 460.641268 
L 903.448769 460.638187 
L 906.127169 461.697707 
L 906.424769 461.783755 
L 907.019969 459.57813 
L 909.698369 460.815901 
L 910.591169 461.084687 
L 910.888769 459.802752 
L 911.186369 459.04431 
L 913.864769 460.370021 
L 914.757569 460.75611 
L 915.055169 460.397435 
L 915.352769 458.905787 
L 915.650369 458.92683 
L 918.328769 460.271895 
L 918.923969 460.538545 
L 919.221569 459.941688 
L 919.519169 458.677342 
L 920.411969 459.114445 
L 923.090369 460.423467 
L 924.875969 461.174477 
L 925.173569 461.214883 
L 925.768769 458.97369 
L 928.744769 460.439491 
L 929.042369 460.564749 
L 929.339969 460.148842 
L 929.637569 458.675129 
L 929.935169 458.217733 
L 932.613569 459.679099 
L 932.911169 459.64466 
L 933.208769 459.364735 
L 935.887169 460.63689 
L 936.184769 460.745492 
L 936.779969 458.341454 
L 937.077569 458.225794 
L 939.755969 459.684025 
L 940.351169 459.968568 
L 940.648769 459.551533 
L 940.946369 458.195462 
L 941.243969 457.873756 
L 943.922369 459.387955 
L 944.219969 459.538178 
L 944.517569 459.435904 
L 944.815169 457.981622 
L 945.112769 457.398196 
L 945.707969 457.710524 
L 948.088769 459.096118 
L 948.386369 459.251332 
L 948.683969 459.195911 
L 948.981569 457.709427 
L 949.279169 457.174217 
L 951.659969 458.640652 
L 952.552769 459.123299 
L 952.850369 458.541904 
L 953.147969 457.040674 
L 953.445569 456.955472 
L 955.826369 458.454251 
L 956.719169 458.948536 
L 957.016769 458.609191 
L 957.611969 455.986555 
L 957.909569 455.044577 
L 959.397569 456.170599 
L 959.695169 455.901576 
L 959.992769 455.253506 
L 961.778369 449.365536 
L 964.456769 439.053865 
L 966.242369 432.983324 
L 967.730369 428.544561 
L 967.730369 428.544561 
" clip-path="url(#p53b41b5a03)" style="fill: none; stroke: #cf3e87; stroke-width: 1.1; stroke-linecap: square"/>
   </g>
   <g id="line2d_52">
    <path d="M 75.227969 467.091737 
L 75.823169 467.087014 
L 76.120769 466.764087 
L 76.418369 465.882707 
L 79.691969 466.103618 
L 79.989569 465.220347 
L 80.287169 464.912987 
L 83.858369 465.350653 
L 84.155969 464.962987 
L 84.453569 464.067529 
L 88.322369 464.741179 
L 88.619969 464.787725 
L 89.215169 464.759776 
L 91.298369 465.033584 
L 91.595969 464.102999 
L 91.893569 463.882328 
L 94.869569 464.458424 
L 95.167169 463.99098 
L 95.464769 463.138197 
L 98.440769 463.850919 
L 98.738369 463.732096 
L 99.035969 462.394554 
L 99.631169 462.519742 
L 102.607169 463.339978 
L 102.904769 463.099217 
L 103.202369 461.839009 
L 106.773569 462.942841 
L 107.071169 462.078707 
L 107.368769 461.590748 
L 110.642369 462.673452 
L 111.237569 462.796114 
L 111.535169 461.534022 
L 111.832769 461.251166 
L 114.808769 462.308698 
L 115.701569 462.584592 
L 115.999169 462.130766 
L 116.296769 461.35611 
L 119.272769 462.392632 
L 119.570369 462.476724 
L 120.165569 461.044117 
L 123.141569 462.130742 
L 124.331969 462.503097 
L 124.927169 461.010388 
L 127.903169 462.112071 
L 128.200769 462.208936 
L 128.498369 462.186549 
L 128.795969 460.783822 
L 129.093569 460.513922 
L 132.069569 461.705342 
L 132.367169 461.807523 
L 132.664769 461.342953 
L 132.962369 460.116613 
L 135.938369 461.379114 
L 136.235969 461.487759 
L 136.533569 461.085478 
L 136.831169 459.766101 
L 139.807169 461.034418 
L 140.104769 460.327499 
L 140.699969 460.520415 
L 141.295169 460.778093 
L 141.890369 460.171014 
L 144.271169 461.194333 
L 144.866369 461.299657 
L 145.163969 461.015761 
L 145.461569 460.98598 
L 148.139969 461.980902 
L 148.437569 461.613708 
L 149.032769 461.767252 
L 149.925569 462.019603 
L 150.223169 460.915802 
L 150.520769 460.676374 
L 153.496769 461.835383 
L 153.794369 461.623298 
L 154.091969 460.113657 
L 154.389569 459.818921 
L 157.067969 461.013796 
L 157.365569 460.285979 
L 157.663169 459.187858 
L 160.043969 460.251928 
L 161.531969 460.902357 
L 161.829569 460.839866 
L 162.127169 459.403867 
L 162.424769 459.217891 
L 164.210369 460.108304 
L 164.507969 460.144647 
L 164.805569 458.816124 
L 165.103169 458.6215 
L 167.781569 460.016864 
L 168.079169 460.156465 
L 168.376769 459.377698 
L 168.674369 458.261977 
L 172.245569 460.134162 
L 172.543169 460.194966 
L 172.840769 458.796412 
L 173.138369 458.340415 
L 175.816769 459.781835 
L 176.114369 459.925587 
L 176.709569 458.043622 
L 179.387969 459.532888 
L 179.983169 459.812889 
L 180.578369 457.633414 
L 183.256769 459.190925 
L 183.851969 459.495307 
L 184.447169 457.51551 
L 187.720769 459.389409 
L 188.018369 459.12009 
L 188.315969 457.633027 
L 188.613569 457.568474 
L 191.291969 459.136068 
L 191.589569 459.259429 
L 192.482369 456.472302 
L 195.458369 458.389256 
L 196.351169 458.890437 
L 196.648769 458.57832 
L 196.946369 457.078639 
L 197.243969 457.051715 
L 199.624769 458.535515 
L 199.922369 458.699735 
L 200.219969 458.609164 
L 200.815169 456.153478 
L 201.112769 455.904435 
L 203.791169 457.730101 
L 204.088769 457.546825 
L 204.683969 455.382092 
L 204.981569 454.469915 
L 205.279169 454.431335 
L 207.659969 456.30334 
L 208.255169 456.646588 
L 208.552769 455.890261 
L 208.850369 454.556204 
L 209.147969 453.957459 
L 212.421569 456.534808 
L 212.719169 456.721873 
L 213.314369 454.634651 
L 215.695169 456.471896 
L 215.992769 456.452506 
L 216.290369 455.953756 
L 216.587969 456.118905 
L 216.885569 456.033824 
L 217.183169 455.769155 
L 217.778369 454.416664 
L 218.373569 452.289296 
L 221.349569 440.07934 
L 223.432769 432.706515 
L 225.218369 427.144848 
L 227.301569 421.463163 
L 229.087169 417.165925 
L 231.765569 411.401685 
L 233.551169 407.960969 
L 235.039169 405.475028 
L 238.015169 401.170612 
L 240.098369 398.481212 
L 242.776769 395.646838 
L 245.752769 392.69413 
L 247.538369 391.292536 
L 251.109569 388.714308 
L 252.597569 387.676915 
L 254.383169 386.868214 
L 256.168769 386.001337 
L 259.442369 384.246873 
L 260.632769 383.793784 
L 263.311169 383.032638 
L 267.775169 381.423623 
L 268.667969 381.282776 
L 271.941569 381.025864 
L 274.322369 380.292096 
L 276.107969 379.850924 
L 277.000769 379.751902 
L 278.191169 379.821615 
L 278.488769 379.960586 
L 278.786369 380.459524 
L 279.083969 381.633336 
L 280.869569 391.295834 
L 282.655169 399.867205 
L 284.440769 407.469283 
L 285.333569 410.779774 
L 285.631169 411.131359 
L 285.928769 410.814592 
L 288.309569 405.528001 
L 289.797569 402.928497 
L 290.095169 402.539452 
L 290.392769 402.46869 
L 290.690369 402.768745 
L 291.285569 404.083279 
L 292.475969 407.194564 
L 293.071169 408.133438 
L 293.368769 408.270884 
L 293.666369 408.089236 
L 294.261569 406.96276 
L 296.344769 402.575549 
L 297.535169 400.508662 
L 298.725569 398.749218 
L 299.915969 397.371561 
L 300.213569 397.268628 
L 300.511169 397.869382 
L 302.891969 408.066984 
L 304.677569 414.741791 
L 306.463169 420.661779 
L 307.951169 425.070639 
L 308.248769 425.562614 
L 308.546369 425.328645 
L 309.141569 423.491098 
L 310.927169 417.85055 
L 312.415169 413.990898 
L 313.307969 412.06852 
L 313.605569 411.920327 
L 313.903169 412.341102 
L 314.498369 414.083672 
L 316.283969 420.076969 
L 317.771969 424.547731 
L 318.069569 425.251446 
L 318.367169 425.61573 
L 318.664769 425.542334 
L 318.962369 424.93599 
L 321.640769 416.473128 
L 322.831169 413.323098 
L 324.021569 410.645184 
L 324.914369 408.9277 
L 325.211969 408.635549 
L 325.509569 409.18792 
L 327.592769 416.737452 
L 329.378369 422.43176 
L 331.163969 427.482129 
L 332.949569 431.961377 
L 335.032769 436.551083 
L 337.115969 440.541154 
L 339.199169 444.00993 
L 341.282369 447.025519 
L 343.365569 449.647127 
L 345.448769 451.926228 
L 347.531969 453.907569 
L 349.912769 455.85702 
L 352.293569 457.518219 
L 354.971969 459.095335 
L 357.650369 460.41264 
L 360.626369 461.62341 
L 363.899969 462.70335 
L 367.471169 463.639751 
L 371.637569 464.482818 
L 376.399169 465.197304 
L 381.755969 465.770059 
L 388.303169 466.240547 
L 396.635969 466.605543 
L 407.944769 466.864369 
L 425.503169 467.021876 
L 463.000769 467.086117 
L 757.327169 467.085255 
L 809.704769 467.065438 
L 810.002369 466.685269 
L 810.299969 465.745618 
L 816.549569 466.198281 
L 816.847169 465.985512 
L 817.144769 464.82543 
L 820.120769 465.222876 
L 820.715969 465.289151 
L 821.013569 464.185285 
L 821.311169 463.954946 
L 824.882369 464.598179 
L 825.179969 464.627869 
L 825.775169 464.064039 
L 829.941569 464.796128 
L 830.239169 464.819827 
L 830.536769 463.609288 
L 830.834369 463.427103 
L 834.703169 464.25896 
L 835.000769 464.313564 
L 835.298369 463.237298 
L 835.595969 462.874049 
L 838.571969 463.634908 
L 838.869569 463.053895 
L 839.167169 462.147934 
L 842.440769 463.122077 
L 842.738369 463.197963 
L 843.035969 463.01445 
L 843.333569 461.79885 
L 844.226369 462.065766 
L 846.309569 462.656172 
L 846.607169 461.326455 
L 846.904769 461.184341 
L 849.880769 462.253511 
L 850.475969 462.436281 
L 851.071169 461.122618 
L 854.047169 462.202712 
L 854.344769 462.288074 
L 854.939969 460.604333 
L 857.915969 461.777883 
L 858.808769 462.083689 
L 859.106369 461.869116 
L 859.403969 460.542446 
L 860.296769 460.867174 
L 863.272769 461.990067 
L 863.570369 462.038857 
L 863.867969 461.182769 
L 864.165569 461.059126 
L 867.141569 462.149496 
L 867.439169 461.81473 
L 867.736769 460.580599 
L 868.927169 461.043954 
L 871.307969 461.932073 
L 871.903169 460.71662 
L 874.879169 461.872038 
L 875.474369 462.073525 
L 875.771969 461.906504 
L 876.069569 460.573945 
L 876.664769 460.767589 
L 879.343169 461.805462 
L 879.640769 461.198502 
L 879.938369 460.086465 
L 883.211969 461.465677 
L 883.509569 461.289676 
L 883.807169 459.872592 
L 884.104769 459.812293 
L 887.080769 461.130913 
L 887.378369 461.241005 
L 887.675969 460.931923 
L 887.973569 459.423702 
L 888.271169 459.426996 
L 890.949569 460.688915 
L 891.247169 460.812723 
L 891.544769 460.129088 
L 891.842369 458.968105 
L 895.115969 460.551285 
L 895.413569 460.280328 
L 895.711169 459.0157 
L 896.603969 459.429829 
L 898.687169 460.427878 
L 898.984769 460.41804 
L 899.282369 458.990095 
L 899.579969 458.449535 
L 902.258369 459.87 
L 902.555969 460.0038 
L 902.853569 459.364142 
L 903.151169 457.988869 
L 904.043969 458.462813 
L 906.424769 459.729577 
L 906.722369 459.406089 
L 907.019969 457.894538 
L 907.317569 457.715804 
L 909.995969 459.258148 
L 910.293569 459.408051 
L 910.591169 459.258747 
L 910.888769 457.767592 
L 911.186369 457.3739 
L 913.864769 458.974791 
L 914.459969 459.259902 
L 915.055169 458.965621 
L 917.733569 460.302186 
L 918.923969 460.769654 
L 919.221569 460.624418 
L 921.899969 461.628503 
L 922.197569 460.782239 
L 922.495169 460.668253 
L 925.471169 461.829994 
L 925.768769 461.910195 
L 926.066369 460.636386 
L 926.363969 459.925804 
L 928.447169 460.862018 
L 928.744769 460.437663 
L 929.042369 459.5319 
L 930.232769 460.012652 
L 930.530369 459.981016 
L 932.613569 460.909767 
L 932.911169 460.857137 
L 933.208769 459.533911 
L 933.506369 459.407212 
L 936.184769 460.672895 
L 936.779969 460.915411 
L 937.077569 460.3334 
L 937.375169 458.800132 
L 937.672769 458.796314 
L 940.351169 460.160397 
L 940.648769 460.285455 
L 940.946369 459.439209 
L 941.243969 457.939094 
L 941.541569 457.772192 
L 944.219969 459.305241 
L 944.815169 459.601169 
L 945.112769 459.155127 
L 945.410369 457.595072 
L 945.707969 457.348469 
L 948.386369 458.9533 
L 948.683969 459.110981 
L 948.981569 458.841242 
L 949.279169 457.299169 
L 949.576769 456.523529 
L 950.469569 457.080596 
L 952.850369 458.55791 
L 953.147969 458.67301 
L 953.743169 456.233899 
L 954.338369 456.57618 
L 956.719169 458.128841 
L 957.016769 458.07565 
L 957.611969 456.410739 
L 962.671169 436.750102 
L 964.754369 429.915449 
L 966.539969 424.705674 
L 967.730369 421.588428 
L 967.730369 421.588428 
" clip-path="url(#p53b41b5a03)" style="fill: none; stroke: #159cbe; stroke-width: 1.1; stroke-linecap: square"/>
   </g>
   <g id="patch_19">
    <path d="M 75.227969 471.458729 
L 75.227969 375.38491 
" style="fill: none; stroke: #000000; stroke-width: 0.8; stroke-linejoin: miter; stroke-linecap: square"/>
   </g>
   <g id="patch_20">
    <path d="M 75.227969 471.458729 
L 968.027969 471.458729 
" style="fill: none; stroke: #000000; stroke-width: 0.8; stroke-linejoin: miter; stroke-linecap: square"/>
   </g>
   <g id="line2d_53">
    <path d="M 430.859969 471.458729 
L 430.859969 375.38491 
" clip-path="url(#p53b41b5a03)" style="fill: none; stroke-dasharray: 1,1.65; stroke-dashoffset: 0; stroke: #5d686b"/>
   </g>
   <g id="line2d_54">
    <path d="M 808.960769 471.458729 
L 808.960769 375.38491 
" clip-path="url(#p53b41b5a03)" style="fill: none; stroke-dasharray: 1,1.65; stroke-dashoffset: 0; stroke: #267ba8"/>
   </g>
  </g>
 </g>
 <defs>
  <clipPath id="pb18b798684">
   <rect x="75.227969" y="44.570729" width="892.8" height="156.119955"/>
  </clipPath>
  <clipPath id="pc79e1f5b0b">
   <rect x="75.227969" y="227.99166" width="892.8" height="120.092273"/>
  </clipPath>
  <clipPath id="p53b41b5a03">
   <rect x="75.227969" y="375.38491" width="892.8" height="96.073818"/>
  </clipPath>
 </defs>
</svg>
